<?xml version="1.0" encoding="UTF-8"?>
<svg xmlns="http://www.w3.org/2000/svg" version="1.1" viewBox="0 0 101.35 85">
  <!-- Generator: Adobe Illustrator 28.7.1, SVG Export Plug-In . SVG Version: 1.2.0 Build 142)  -->
  <g>
    <g id="Layer_1">
      <g id="Layer_1-2" data-name="Layer_1">
        <path d="M78.9.66c-15.55-3.12-24.84,5.66-28.21,9.73-3.38-4.07-12.68-12.85-28.21-9.73C10.51,3.06,1.55,13.33.16,26.22c-.89,8.25.09,36.88,49.84,58.64.22.1.44.14.67.14s.47-.04.67-.14c49.75-21.75,50.73-50.38,49.84-58.64-1.38-12.88-10.35-23.16-22.31-25.56h.02ZM50.69,81.46C3.7,60.68,2.71,34.23,3.53,26.58,4.75,15.17,12.64,6.08,23.14,3.97c2.07-.41,4.01-.6,5.82-.6,13.52,0,19.98,10.22,20.28,10.71.3.5.85.81,1.44.81h0c.58,0,1.14-.31,1.44-.81.35-.56,8.59-13.62,26.1-10.12,10.5,2.11,18.38,11.2,19.61,22.61.82,7.64-.17,34.1-47.16,54.88h0Z"/>
        <path d="M80.43,40.2h-15.88l-3.96-7.5c-.31-.6-.95-.93-1.6-.9-.67.04-1.24.48-1.47,1.1l-5.12,13.92-7.02-18.26c-.24-.62-.82-1.04-1.48-1.08-.65-.04-1.29.32-1.59.91l-6.32,12.17h-15.02c-.93,0-1.69.76-1.69,1.69s.76,1.69,1.69,1.69h16.04c.64,0,1.21-.35,1.5-.91l5.05-9.75,7.29,18.95c.25.66.88,1.08,1.58,1.08h.01c.7,0,1.33-.44,1.57-1.1l5.36-14.58,2.67,5.04c.29.55.87.9,1.49.9h16.9c.93,0,1.69-.76,1.69-1.69s-.76-1.69-1.69-1.69h-.01Z"/>
      </g>
    </g>
  </g>
</svg>