<?xml version="1.0" encoding="UTF-8"?>
<svg xmlns="http://www.w3.org/2000/svg" version="1.1" viewBox="0 0 50 50">
  <defs>
    <style>
      .cls-1 {
        fill: #fff;
      }

      .cls-2 {
        fill: gray;
      }
    </style>
  </defs>
  <!-- Generator: Adobe Illustrator 28.7.1, SVG Export Plug-In . SVG Version: 1.2.0 Build 142)  -->
  <g>
    <g id="Layer_1">
      <g>
        <g>
          <path class="cls-1" d="M8.49,15.72c-1.7,0-3.09-1.38-3.09-3.09s1.38-3.09,3.09-3.09h33.01c1.7,0,3.09,1.38,3.09,3.09s-1.38,3.09-3.09,3.09H8.49Z"/>
          <path class="cls-2" d="M41.51,9.68c1.63,0,2.96,1.33,2.96,2.96s-1.33,2.96-2.96,2.96H8.49c-1.63,0-2.96-1.33-2.96-2.96s1.33-2.96,2.96-2.96h33.01M41.51,9.43H8.49c-1.77,0-3.21,1.45-3.21,3.21s1.45,3.21,3.21,3.21h33.01c1.77,0,3.21-1.45,3.21-3.21s-1.45-3.21-3.21-3.21h0Z"/>
        </g>
        <g>
          <path class="cls-1" d="M8.49,28.09c-1.7,0-3.09-1.38-3.09-3.09s1.38-3.09,3.09-3.09h33.01c1.7,0,3.09,1.38,3.09,3.09s-1.38,3.09-3.09,3.09H8.49Z"/>
          <path class="cls-2" d="M41.51,22.04c1.63,0,2.96,1.33,2.96,2.96s-1.33,2.96-2.96,2.96H8.49c-1.63,0-2.96-1.33-2.96-2.96s1.33-2.96,2.96-2.96h33.01M41.51,21.79H8.49c-1.77,0-3.21,1.45-3.21,3.21s1.45,3.21,3.21,3.21h33.01c1.77,0,3.21-1.45,3.21-3.21s-1.45-3.21-3.21-3.21h0Z"/>
        </g>
        <g>
          <path class="cls-1" d="M8.49,40.45c-1.7,0-3.09-1.38-3.09-3.09s1.38-3.09,3.09-3.09h33.01c1.7,0,3.09,1.38,3.09,3.09s-1.38,3.09-3.09,3.09H8.49Z"/>
          <path class="cls-2" d="M41.51,34.4c1.63,0,2.96,1.33,2.96,2.96s-1.33,2.96-2.96,2.96H8.49c-1.63,0-2.96-1.33-2.96-2.96s1.33-2.96,2.96-2.96h33.01M41.51,34.15H8.49c-1.77,0-3.21,1.45-3.21,3.21s1.45,3.21,3.21,3.21h33.01c1.77,0,3.21-1.45,3.21-3.21s-1.45-3.21-3.21-3.21h0Z"/>
        </g>
      </g>
    </g>
  </g>
</svg>