<?xml version="1.0" encoding="UTF-8"?>
<svg xmlns="http://www.w3.org/2000/svg" version="1.1" viewBox="0 0 800 800">
  <defs>
    <style>
      .cls-1 {
        font-family: Roboto-Regular, Roboto;
        font-size: 20.78px;
      }

      .cls-1, .cls-2, .cls-3, .cls-4 {
        fill: #fff;
      }

      .cls-5, .cls-6 {
        fill: #cff5fb;
      }

      .cls-7 {
        fill: #0d5970;
      }

      .cls-8 {
        fill: #227082;
      }

      .cls-9 {
        fill: #4070b7;
      }

      .cls-3 {
        font-size: 41.3px;
      }

      .cls-3, .cls-4 {
        font-family: Roboto-Medium, Roboto;
        font-weight: 500;
      }

      .cls-4 {
        font-size: 27.12px;
      }

      .cls-10 {
        fill: #c4eaf9;
      }

      .cls-6 {
        font-family: Roboto-Bold, Roboto;
        font-size: 28.78px;
        font-weight: 700;
      }

      .cls-11 {
        fill: #8accee;
      }

      .cls-12 {
        fill: #0c4c5b;
      }

      .cls-13 {
        fill: #053338;
      }
    </style>
  </defs>
  <!-- Generator: Adobe Illustrator 28.7.1, SVG Export Plug-In . SVG Version: 1.2.0 Build 142)  -->
  <g>
    <g id="BACKGROUND">
      <g>
        <rect class="cls-8" x=".32" y=".32" width="799.36" height="799.36"/>
        <rect class="cls-9" x=".32" y=".32" width="799.36" height="146"/>
      </g>
    </g>
    <g id="OBJECTS">
      <g>
        <path class="cls-7" d="M799.68,670.36c-30.65,6.63-88.03,8.9-107.3,11.4-277.96,36.07-249.31,14.5-457.25-26.52-106.5-21.01-141.45,9.9-234.81,24.05v120.39h799.36v-129.32Z"/>
        <path class="cls-13" d="M799.68,733.17v66.51H.32v-85.31c44.03-8.01,119.01-7.4,245.42,23.09,270.54,65.26,259.39,42.97,380.34,20.69,92.97-17.12,134.21-29.54,173.61-24.97Z"/>
      </g>
      <path class="cls-13" d="M799.68,733.17v66.51H.32v-85.31c44.03-8.01,119.01-7.4,245.42,23.09,270.54,65.26,259.39,42.97,380.34,20.69,92.97-17.12,134.21-29.54,173.61-24.97Z"/>
      <g>
        <circle class="cls-7" cx="413.33" cy="235.26" r="42.39" transform="translate(84.13 578.5) rotate(-75.84)"/>
        <g>
          <path class="cls-10" d="M425.18,233.28c-.26-3.09-2.06-4.76-2.06-4.76,4.05-3.87.04-9.08-3.06-12.1-1.52-1.48-2.38-3.51-2.38-5.63v-1.41h-8.07v1.41c0,2.12-.86,4.15-2.38,5.63-3.1,3.02-7.11,8.22-3.06,12.1,0,0-1.8,1.68-2.06,4.76-.2,2.38-.09,20.5-.03,28.7.02,2.66,1.78,4.98,4.32,5.75,1.94.58,4.43,1.1,7.24,1.13,2.82-.03,5.31-.54,7.24-1.13,2.55-.77,4.3-3.09,4.32-5.75.06-8.2.17-26.32-.03-28.7Z"/>
          <path class="cls-11" d="M402.51,231.42h22.28c-.61-1.88-1.67-2.9-1.67-2.9,1.04-1,1.55-2.09,1.67-3.2h-22.29c.13,1.12.63,2.2,1.67,3.2,0,0-1.06,1.02-1.67,2.9Z"/>
          <path class="cls-5" d="M407.07,267.73c-2.55-.77-4.3-3.09-4.32-5.75-.06-8.2-.17-26.32.03-28.7.26-3.09,2.06-4.76,2.06-4.76-4.05-3.87-.04-9.08,3.06-12.1,1.52-1.48,2.38-3.51,2.38-5.63v-1.41h-.66v1.41c0,2.12-.86,4.15-2.38,5.63-3.1,3.02-7.11,8.22-3.06,12.1,0,0-1.8,1.68-2.06,4.76-.2,2.38-.09,20.5-.03,28.7.02,2.66,1.78,4.98,4.32,5.75,1.94.58,4.43,1.1,7.24,1.13.11,0,.22-.01.33-.02-2.68-.07-5.05-.55-6.91-1.11Z"/>
          <path class="cls-11" d="M417.76,211.52c-.02-.25-.07-.49-.07-.73v-1.41h-8.07v1.41c0,.25-.05.49-.07.73h8.22Z"/>
          <rect class="cls-11" x="407.93" y="203.66" width="11.43" height="5.79" rx=".63" ry=".63"/>
          <path class="cls-11" d="M425.18,233.28c-.26-3.09-2.06-4.76-2.06-4.76,4.05-3.87.04-9.08-3.06-12.1-1.52-1.48-2.38-3.51-2.38-5.63v-1.41h-3.87c-.61,1.47-1.27,4.67,1.67,9.04,4.11,6.1,5.04,8.89,2.78,9.68,0,0,1.46,33.4-.93,40.44,1.31-.21,2.52-.49,3.55-.81,2.55-.77,4.3-3.09,4.32-5.75.06-8.2.17-26.32-.03-28.7Z"/>
        </g>
      </g>
      <g>
        <path class="cls-13" d="M720.65,739.4c2.14-4.21,1.15-7.83,1.15-7.83,8.36-1.77,7.33-11.73,5.74-18.13-.78-3.14-.27-6.46,1.43-9.21l1.13-1.83-10.46-6.47-1.13,1.83c-1.7,2.75-4.45,4.69-7.61,5.39-6.44,1.43-15.81,4.96-13.66,13.23,0,0-3.68.73-6.49,4.52-2.17,2.93-16.56,26.5-23.06,37.18-2.11,3.46-1.7,7.88.99,10.92,2.04,2.31,4.86,4.97,8.48,7.27,3.68,2.22,7.31,3.55,10.3,4.35,3.92,1.05,8.06-.56,10.21-3.99,6.65-10.58,21.33-33.98,22.98-37.23Z"/>
        <rect class="cls-13" x="718.43" y="691.08" width="17.42" height="8.83" rx=".95" ry=".95" transform="translate(474.73 -278.53) rotate(31.75)"/>
      </g>
      <g>
        <path class="cls-13" d="M208.94,694.07c-2.36-4.23-6-5.45-6-5.45,3.26-8.12-5.79-12.94-12.15-15.24-3.12-1.13-5.65-3.46-7.02-6.48l-.91-2.01-11.48,5.2.91,2.01c1.37,3.02,1.45,6.46.25,9.55-2.46,6.29-4.81,16.28,3.45,19.18,0,0-1.49,3.55.14,8.11,1.25,3.52,13.09,29.22,18.46,40.84,1.74,3.77,5.74,5.94,9.86,5.4,3.13-.42,7.01-1.29,11.03-3.06,3.98-1.86,7.2-4.2,9.58-6.28,3.13-2.73,4.13-7.17,2.44-10.97-5.2-11.7-16.73-37.55-18.55-40.8Z"/>
        <rect class="cls-13" x="166.37" y="658.96" width="17.84" height="9.05" rx=".98" ry=".98" transform="translate(-258.26 131.54) rotate(-24.38)"/>
      </g>
      <g>
        <path class="cls-13" d="M535.08,799.68c1.83-4.73,3.19-8.34,3.54-9.51,1.38-4.64-.29-8.1-.29-8.1,8.1-3.33,5.22-13.18,2.44-19.33-1.37-3.02-1.47-6.46-.26-9.55l.8-2.05-11.74-4.59-.8,2.05c-1.21,3.09-3.61,5.55-6.67,6.84-6.22,2.63-15.01,7.92-11.32,15.86,0,0-3.58,1.41-5.71,5.76-.98,2-4.98,12.19-9.02,22.63h39.04Z"/>
        <rect class="cls-13" x="528.12" y="740.2" width="17.84" height="9.05" rx=".98" ry=".98" transform="translate(308.09 -144.44) rotate(21.36)"/>
      </g>
      <path class="cls-13" d="M490.31,752.08c-9.41,4.38-17.01,7.82-23.09,11.29,1.54-3.14,3.7-6.28,6.75-9.19,22.81-21.76,20.77-36.38,20.77-36.38,0,0-.61,8.94-29.1,27.59-5.24,3.43-10.53,8.57-14.9,16.15,1.09-6.13,4.63-17.78,5.65-24.64,4.32-28.88-17.75-26.98-17.75-26.98,0,0,19.59,3.3,1.36,51.7-.41-9.24-1.2-19.16-5.81-26-7.99-11.86-31-13.66-31-13.66,0,0,33.34,9.39,24.36,47.09-8.21-11.12-19.85-21.32-35.05-21.55,0,0,23.87,10.8,29.81,36.9h49.27c1.8-6.45,6.23-15.61,17.11-22.33,11.38-7.02,16.08-14.83,18.03-19.82-2.35,2.31-7.12,5.54-16.39,9.84Z"/>
      <g>
        <path class="cls-12" d="M254.34,622.68c-.72-.81-.92-1.97-.52-2.97l2.08-5.15c.16-.83-.76-1.45-1.47-1l-9.78,6.2c-.21.13-.47.18-.72.13-4.82-1.01-9.34-1.62-13.56-1.94l1.32-3.86s-18.5-.43-22.66.86c-2.9.9-5.17,3.75-6.28,5.4-6.08,1.67-10.21,3.72-12.26,4.88-.68.39-.65,1.37.05,1.72,2.62,1.28,8.42,3.8,16.08,5.27.19.55.81,1.43,2.62,2.61,5.59,3.66,10.9,2.65,11.12,2.73.13.04-1.57-2.32-2.94-4.2,4.07.07,8.39-.27,12.87-1.23,1.75-.37,3.46-.87,5.15-1.44l10.31-4.23c.18-.06.38-.07.57-.02l11.04,2.35c.92.25,1.62-.83,1.01-1.56l-4.03-4.53Z"/>
        <path class="cls-12" d="M498.75,664.53c-.51-.58-.65-1.39-.36-2.1l1.47-3.64c.11-.59-.54-1.03-1.04-.71l-6.92,4.38c-.15.1-.33.13-.51.09-3.41-.71-6.61-1.15-9.59-1.37l.93-2.73s-13.09-.3-16.04.61c-2.05.64-3.66,2.65-4.44,3.82-4.3,1.18-7.23,2.63-8.67,3.45-.48.27-.46.97.04,1.21,1.86.91,5.96,2.69,11.38,3.73.14.39.58,1.01,1.85,1.85,3.96,2.59,7.71,1.88,7.87,1.93.09.03-1.11-1.64-2.08-2.98,2.88.05,5.94-.19,9.11-.87,1.24-.26,2.45-.62,3.65-1.02l7.3-2.99c.13-.04.27-.05.4-.01l7.81,1.66c.65.18,1.14-.58.71-1.1l-2.85-3.21Z"/>
        <path class="cls-12" d="M120.98,625.33c-.41-.46-.52-1.11-.29-1.67l1.17-2.9c.09-.47-.43-.82-.83-.56l-5.51,3.49c-.12.08-.27.1-.4.07-2.71-.57-5.26-.91-7.64-1.09l.74-2.17s-10.42-.24-12.76.48c-1.63.51-2.91,2.11-3.54,3.04-3.42.94-5.75,2.09-6.9,2.75-.38.22-.37.77.03.97,1.48.72,4.74,2.14,9.06,2.97.11.31.46.81,1.48,1.47,3.15,2.06,6.14,1.49,6.26,1.53.07.02-.89-1.31-1.66-2.37,2.29.04,4.73-.15,7.25-.69.98-.21,1.95-.49,2.9-.81l5.81-2.38c.1-.04.22-.04.32,0l6.22,1.32c.52.14.91-.47.57-.88l-2.27-2.55Z"/>
        <path class="cls-12" d="M431.51,703.25l-5.87-6.6c-1.05-1.18-1.34-2.86-.75-4.33l3.03-7.5c.23-1.22-1.1-2.12-2.15-1.46l-14.25,9.03c-.31.2-.69.26-1.04.19-7.02-1.47-13.61-2.36-19.75-2.83l1.92-5.62s-26.96-.63-33.02,1.25c-4.23,1.31-7.54,5.47-9.15,7.86-8.86,2.43-14.88,5.42-17.86,7.1-.99.56-.95,2,.07,2.5,3.82,1.87,12.27,5.53,23.43,7.67.28.81,1.19,2.08,3.82,3.8,8.15,5.33,15.88,3.87,16.2,3.97.19.06-2.29-3.39-4.29-6.13,5.92.1,12.23-.39,18.75-1.79,2.54-.55,5.05-1.27,7.51-2.1l15.02-6.16c.27-.09.56-.1.83-.02l16.09,3.42c1.34.37,2.35-1.2,1.47-2.27Z"/>
        <path class="cls-12" d="M597.71,697.92l-4.38-4.93c-.79-.88-1-2.14-.56-3.23l2.26-5.6c.17-.91-.82-1.58-1.6-1.09l-10.64,6.74c-.23.15-.51.2-.78.14-5.24-1.1-10.15-1.76-14.74-2.11l1.44-4.2s-20.12-.47-24.64.94c-3.16.98-5.62,4.08-6.83,5.87-6.61,1.82-11.1,4.04-13.33,5.3-.74.42-.71,1.49.06,1.87,2.85,1.39,9.16,4.13,17.49,5.73.21.6.89,1.56,2.85,2.84,6.08,3.98,11.85,2.89,12.09,2.96.14.05-1.71-2.53-3.2-4.57,4.42.08,9.13-.29,14-1.33,1.9-.41,3.77-.95,5.6-1.57l11.21-4.59c.2-.07.42-.07.62-.02l12.01,2.55c1,.28,1.76-.9,1.09-1.69Z"/>
      </g>
      <polygon class="cls-13" points="296.83 765.6 267.09 758.59 272.97 699.58 317.93 710.17 296.83 765.6"/>
      <path class="cls-13" d="M116.41,691.57c-1.18-4.22-5.67-6.58-9.81-5.13-6.42,2.25-15.94,6.09-24.87,11.68,5.79-9.37,13.47-18.52,18.82-24.49,3.3-3.68,2.6-9.42-1.49-12.19h0c-3.13-2.13-7.3-1.8-10.1.74-11.5,10.44-23.78,28.95-23.78,28.95-5.01-13.25-22.58-30.96-30.08-38.12-2.02-1.93-5.05-2.3-7.48-.94-3.59,2.01-4.38,6.88-1.55,9.87,15.24,16.06,20.87,32.95,22.91,44.45-4.31-5.21-11.06-12.29-18.79-16.45-2.49-1.34-5.56-.87-7.47,1.22-2.42,2.64-2.05,6.79.79,8.97,5.8,4.46,14.62,11.93,17.9,18.32h36.79c6.24-5.46,17.75-13.87,32.66-17.46,4.19-1.01,6.71-5.28,5.56-9.43Z"/>
      <g>
        <circle class="cls-7" cx="413.33" cy="471.37" r="42.39"/>
        <g>
          <g>
            <path class="cls-10" d="M391.61,445.36s10.31,20.81.11,47.59l39.14-.09c-10.32-26.74-.11-47.59-.11-47.59l-39.14.09Z"/>
            <rect class="cls-11" x="391.61" y="442.89" width="39.14" height="2.43" transform="translate(-1.02 .95) rotate(-.13)"/>
            <rect class="cls-11" x="391.72" y="492.91" width="39.14" height="2.43" transform="translate(-1.14 .95) rotate(-.13)"/>
          </g>
          <path class="cls-11" d="M430.75,445.27l-8.12.02c-1.92,3.88-4.12,10.19-3.81,18.48.53,14.45-15.69,13.57-5.64,16.74,10.05,3.17,12.87,6.52,4.58,8.64-2.29.58-2.97,2-2.75,3.75l15.85-.04c-10.32-26.74-.11-47.59-.11-47.59Z"/>
          <path class="cls-11" d="M397.09,484.92c1.19,5.68,4.36-14.19.79-27.98-1.26-4.87-2.23-9.04-3.14-11.59h-3.14s10.31,20.81.11,47.6h1.54c2.16-5.22,2.98-12.16,3.84-8.03Z"/>
        </g>
      </g>
      <g>
        <path class="cls-13" d="M759.57,714.66c0,3.52-2.85,6.37-6.37,6.37s-6.37-2.85-6.37-6.37,2.85-6.37,6.37-6.37,6.37,2.85,6.37,6.37Z"/>
        <path class="cls-13" d="M692.29,701.93c0,1.71-1.39,3.1-3.1,3.1s-3.1-1.39-3.1-3.1,1.39-3.1,3.1-3.1,3.1,1.39,3.1,3.1Z"/>
        <path class="cls-13" d="M754.31,676.46c0,1.78-1.45,3.23-3.23,3.23s-3.23-1.45-3.23-3.23,1.45-3.23,3.23-3.23,3.23,1.45,3.23,3.23Z"/>
        <path class="cls-13" d="M706.52,662.67c0,2.73-2.22,4.95-4.95,4.95s-4.95-2.22-4.95-4.95,2.22-4.95,4.95-4.95,4.95,2.22,4.95,4.95Z"/>
        <path class="cls-13" d="M660.2,719.43c0,5.37-4.35,9.72-9.73,9.72s-9.72-4.35-9.72-9.72,4.35-9.73,9.72-9.73,9.73,4.35,9.73,9.73Z"/>
        <circle class="cls-13" cx="641.1" cy="689.55" r="2.27"/>
        <path class="cls-13" d="M248.57,710.41c0,2.34-1.9,4.24-4.24,4.24s-4.24-1.9-4.24-4.24,1.9-4.24,4.24-4.24,4.24,1.9,4.24,4.24Z"/>
        <path class="cls-13" d="M58.33,643.05c0,2.26-1.83,4.08-4.08,4.08s-4.08-1.83-4.08-4.08,1.83-4.08,4.08-4.08,4.08,1.83,4.08,4.08Z"/>
        <path class="cls-13" d="M261.47,682.12c0,2.15-1.74,3.89-3.89,3.89s-3.89-1.74-3.89-3.89,1.74-3.89,3.89-3.89,3.89,1.74,3.89,3.89Z"/>
        <circle class="cls-13" cx="261.65" cy="711.3" r="2.3"/>
        <path class="cls-13" d="M320.71,741.18c0,1.76-1.42,3.18-3.18,3.18s-3.18-1.42-3.18-3.18,1.42-3.18,3.18-3.18,3.18,1.43,3.18,3.18Z"/>
        <path class="cls-13" d="M135.4,697.42c0,2.49-2.02,4.51-4.51,4.51s-4.51-2.02-4.51-4.51,2.02-4.51,4.51-4.51,4.51,2.02,4.51,4.51Z"/>
        <circle class="cls-13" cx="590.02" cy="748.77" r="3.38"/>
      </g>
      <g>
        <circle class="cls-7" cx="413.33" cy="589.52" r="42.39" transform="translate(-295.79 464.93) rotate(-45)"/>
        <g>
          <path class="cls-10" d="M429.59,582.86c-.54-5.95,2.43-19.1-1.77-19.55-4.2-.44-7.51,14.36-7.51,14.36,0,0-12.26.44-17.01-.88,0,0,0-14.47-3.42-15.13-3.42-.66-4.94,9.25-5.08,14.25-.26,9.46-6.07,31.36,1.44,37.77,0,0,21.83,5.85,32.32.99,0,0,2.43-16.49,1.03-31.8ZM397.34,576.97s.96-13.77,1.91-13.1c.96.66.96,12.81.96,12.81-.96.44-2.87.29-2.87.29ZM426.24,578.25s-2.58-.74-4.42-.4c0,0,3.9-13.29,5.85-13.03,1.95.26-1.44,13.44-1.44,13.44Z"/>
          <path class="cls-11" d="M423.4,589.33c-5.6,4.79-9.5,5.6-3.02,5.01,6.48-.59,14.72,7.73.88,12.29-13.84,4.56-18.55,4.93-6.11,5.6,12.44.66,8.75,3.47-6.92,1.55-14-1.72-12.88-23.25-13.77-33.7-1.2,10.63-4.78,28,1.77,33.59,0,0,21.83,5.85,32.32.99,0,0,2.43-16.49,1.03-31.8-.05-.53-.07-1.11-.07-1.74-1.28,2.58-3.28,5.79-6.12,8.22Z"/>
          <path class="cls-11" d="M394.93,590.84s16.84-1.79,14.78-.18c-2.06,1.6-2.12.76-7.67,1.93-8.79,1.85-11.26-.75-7.11-1.75Z"/>
          <path class="cls-5" d="M401.24,596.98s13.94-1.18,19.93.69c5.99,1.87.64,2.99-3.19,3.44-3.83.44-12.37.74-7.02,2.01,5.35,1.28,6.82,2.85-.88,3.44-7.71.59-9.62.79-6.68-.54s9.91-1.91,2.5-2.99c-7.41-1.08-8.54-1.52-4.56-2.9,3.98-1.37-2.8-2.36-.1-3.14Z"/>
          <path class="cls-11" d="M397.49,579.73s2.71-1.26,9-.87c6.29.39,16.65,1.55,18.88,1.26,2.23-.29,6.29,1.84-2.61,1.55-8.91-.29-14.81-1.65-17.33-1.55-2.52.1-10.36.97-7.94-.39Z"/>
          <path class="cls-5" d="M423.75,585.31c0-.85-5.54-1.15-12.38-1.15s-12.38.29-12.38,1.15,5.54,1.55,12.38,1.55,12.38-.69,12.38-1.55Z"/>
        </g>
      </g>
      <g>
        <circle class="cls-7" cx="413.33" cy="353.23" r="42.39" transform="translate(-30.25 667.62) rotate(-75.84)"/>
        <g>
          <g>
            <path class="cls-11" d="M432.89,331.96c0-1.33-8.98-2.41-20.06-2.41s-20.06,1.08-20.06,2.41,8.98,2.41,20.06,2.41,20.06-1.08,20.06-2.41Z"/>
            <path class="cls-10" d="M432.88,332.03l-6.51,47.29c-4.4,1.46-8.97,2.19-13.55,2.19s-9.15-.73-13.54-2.19l-6.51-47.29c.32,1.3,9.18,2.34,20.05,2.34s19.74-1.04,20.05-2.34Z"/>
            <path class="cls-11" d="M422.43,334.08c.19,3.31.64,15.11-2.62,19.74-3.8,5.41-8.33,7.53.29,6.58,5.99-.66,1.76,12.55-1.31,20.7,2.56-.36,5.1-.94,7.58-1.76l6.51-47.29c-.22.88-4.39,1.65-10.46,2.05Z"/>
            <path class="cls-11" d="M392.77,332.03l6.51,47.29c1.05.35,2.11.65,3.18.92-1.39-5.29-3.7-14.75-2.35-14.52,1.86.33,1.75,0-.33-6.14-1.69-4.98-3.53-20.67-4.16-26.39-1.72-.34-2.75-.74-2.85-1.17Z"/>
          </g>
          <path class="cls-5" d="M399.13,336.18s3.09,22.33,6.28,22.46c9.11.35,15.8-14.71,11.85-19.98-1.33-1.77-18.12-2.48-18.12-2.48Z"/>
        </g>
      </g>
      <g>
        <g>
          <path class="cls-10" d="M169.45,377.32c-2.3-3.28-5.41-3.96-5.41-3.96,1.98-6.97-5.89-10.15-11.31-11.49-2.66-.66-4.95-2.36-6.34-4.73l-.92-1.57-9,5.28.92,1.57c1.39,2.37,1.76,5.19,1.03,7.84-1.48,5.39-2.55,13.81,4.5,15.48,0,0-.92,3.05.82,6.66,1.33,2.78,13.3,22.91,18.73,32.02,1.76,2.95,5.24,4.39,8.58,3.59,2.54-.61,5.65-1.67,8.81-3.48,3.12-1.88,5.56-4.08,7.34-5.99,2.34-2.52,2.77-6.26,1.06-9.24-5.29-9.18-17.02-29.45-18.8-31.97Z"/>
          <path class="cls-11" d="M142.95,390.07l24.84-14.57c-1.9-1.7-3.75-2.14-3.75-2.14.51-1.8.36-3.34-.23-4.67l-24.85,14.57c.87,1.16,2.14,2.05,3.96,2.48,0,0-.52,1.83.03,4.32Z"/>
          <path class="cls-5" d="M171.78,427.57c-3.34.81-6.82-.63-8.58-3.59-5.43-9.1-17.39-29.23-18.73-32.02-1.73-3.61-.82-6.66-.82-6.66-7.05-1.67-5.98-10.09-4.5-15.48.73-2.65.36-5.47-1.03-7.84l-.92-1.57-.74.43.92,1.57c1.39,2.37,1.76,5.19,1.03,7.84-1.48,5.39-2.55,13.81,4.5,15.48,0,0-.92,3.05.82,6.66,1.33,2.78,13.3,22.91,18.73,32.02,1.76,2.95,5.24,4.39,8.58,3.59,2.54-.61,5.65-1.67,8.81-3.48.13-.08.23-.16.36-.24-3.03,1.67-5.99,2.69-8.43,3.28Z"/>
          <path class="cls-11" d="M146.95,357.92c-.19-.26-.4-.49-.56-.77l-.92-1.57-9,5.28.92,1.57c.16.28.26.58.4.87l9.16-5.37Z"/>
          <rect class="cls-11" x="131.74" y="351.32" width="14.77" height="7.49" rx=".81" ry=".81" transform="translate(-160.5 119.15) rotate(-30.39)"/>
          <path class="cls-11" d="M169.45,377.32c-2.3-3.28-5.41-3.96-5.41-3.96,1.98-6.97-5.89-10.15-11.31-11.49-2.66-.66-4.95-2.36-6.34-4.73l-.92-1.57-4.32,2.53c.28,2.04,1.64,6.04,7.78,8.99,8.57,4.11,11.43,6.61,9.43,8.97,0,0,23.46,36.28,25.41,45.69,1.33-1.09,2.48-2.19,3.43-3.22,2.34-2.52,2.77-6.26,1.06-9.24-5.29-9.18-17.02-29.45-18.8-31.97Z"/>
        </g>
        <g>
          <path class="cls-10" d="M176.11,251.24c-.32-3.99-2.64-6.17-2.64-6.17,5.25-4.99.09-11.73-3.9-15.65-1.96-1.92-3.06-4.55-3.05-7.29v-1.82s-10.43-.03-10.43-.03v1.82c-.01,2.74-1.14,5.36-3.11,7.27-4.02,3.89-9.22,10.6-4,15.62,0,0-2.34,2.16-2.68,6.15-.27,3.08-.2,26.49-.16,37.09.01,3.44,2.27,6.45,5.56,7.45,2.5.76,5.72,1.44,9.36,1.49,3.64-.03,6.86-.68,9.37-1.43,3.29-.98,5.57-3.98,5.61-7.42.11-10.6.33-34.01.08-37.09Z"/>
          <path class="cls-11" d="M146.81,248.73l28.8.09c-.78-2.43-2.14-3.75-2.14-3.75,1.35-1.29,2.01-2.69,2.17-4.13l-28.81-.09c.16,1.44.8,2.85,2.15,4.15,0,0-1.38,1.31-2.17,3.74Z"/>
          <path class="cls-5" d="M152.56,295.69c-3.29-1-5.55-4.01-5.56-7.45-.04-10.6-.11-34.01.16-37.09.34-3.99,2.68-6.15,2.68-6.15-5.22-5.02-.02-11.73,4-15.62,1.97-1.91,3.09-4.53,3.1-7.27v-1.82s-.85,0-.85,0v1.82c-.01,2.74-1.14,5.36-3.11,7.27-4.02,3.89-9.22,10.6-4,15.62,0,0-2.34,2.16-2.68,6.15-.27,3.08-.2,26.49-.16,37.09.01,3.44,2.27,6.45,5.56,7.45,2.5.76,5.72,1.44,9.36,1.49.15,0,.28-.02.43-.02-3.46-.1-6.53-.73-8.93-1.47Z"/>
          <path class="cls-11" d="M166.61,223.09c-.03-.32-.09-.63-.09-.95v-1.82s-10.43-.03-10.43-.03v1.82c0,.32-.07.63-.1.95l10.62.03Z"/>
          <rect class="cls-11" x="153.93" y="212.9" width="14.77" height="7.49" rx=".81" ry=".81" transform="translate(.7 -.52) rotate(.18)"/>
          <path class="cls-11" d="M176.11,251.24c-.32-3.99-2.64-6.17-2.64-6.17,5.25-4.99.09-11.73-3.9-15.65-1.96-1.92-3.06-4.55-3.05-7.29v-1.82s-5-.02-5-.02c-.8,1.9-1.66,6.04,2.12,11.69,5.29,7.9,6.48,11.5,3.56,12.52,0,0,1.75,43.17-1.36,52.26,1.7-.26,3.25-.63,4.59-1.03,3.29-.98,5.57-3.98,5.61-7.42.11-10.6.33-34.01.08-37.09Z"/>
        </g>
        <g>
          <g>
            <path class="cls-10" d="M100.66,261.72s-2.69,26.64-29.09,46.55l38.28,23.92c6.32-32.45,29.09-46.55,29.09-46.55l-38.28-23.92Z"/>
            <rect class="cls-11" x="97.97" y="271.1" width="45.14" height="2.8" transform="translate(162.72 -22.47) rotate(32)"/>
            <rect class="cls-11" x="67.4" y="320.02" width="45.14" height="2.8" transform="translate(184 1.17) rotate(32)"/>
          </g>
          <path class="cls-11" d="M138.94,285.64l-7.94-4.96c-4.26,2.61-10.27,7.43-15.06,15.71-8.35,14.44-23.64,3.63-15.78,12.89,7.87,9.26,8.57,14.26-.82,11.25-2.59-.83-4.13.13-4.99,1.97l15.51,9.69c6.32-32.45,29.09-46.55,29.09-46.55Z"/>
          <path class="cls-11" d="M81.75,303.72c-2.32,6.28,12.96-11.18,17.94-26.84,1.75-5.52,3.37-10.19,4.05-13.24l-3.07-1.92s-2.69,26.64-29.09,46.55l1.5.94c5.31-3.78,10.36-10.05,8.67-5.49Z"/>
        </g>
        <g>
          <path class="cls-10" d="M195.38,297.49c-5.22-7.78-11.02-28.12-17.13-25.57-6.11,2.55.46,25.4.46,25.4,0,0-16.54,9.82-24.07,11.57,0,0-10.88-19.91-16.09-18.25-5.21,1.66.15,16.44,3.72,23.42,6.76,13.21,15.22,47.73,30.37,50.89,0,0,34.44-8.36,45.22-22.93,0,0-9.06-24.52-22.5-44.54ZM146.58,313.63s-9.03-19.67-7.22-19.47c1.82.19,10.95,16.91,10.95,16.91-.98,1.33-3.73,2.56-3.73,2.56ZM187.31,293.67s-4.1.92-6.38,2.76c0,0-4.62-21.22-1.74-22.33,2.88-1.11,8.13,19.57,8.13,19.57Z"/>
          <path class="cls-11" d="M191.74,311.05c-4.1,10.79-8.86,14.84-.39,9.16,8.47-5.68,26.08-.43,10.46,16.26s-21.82,20.74-4.2,12.29c17.62-8.44,14.64-1.81-8.36,7.33-20.56,8.16-35.2-22.31-44.28-36.02,6.35,15.52,14.47,42.13,27.69,44.89,0,0,34.44-8.36,45.22-22.93,0,0-9.06-24.52-22.5-44.54-.46-.69-.93-1.48-1.4-2.34.17,4.52-.16,10.44-2.24,15.91Z"/>
          <path class="cls-11" d="M153.69,334.53s21.83-15.12,20.2-11.36-2.35,2.65-9.1,8.42c-10.71,9.16-16.06,7.43-11.1,2.94Z"/>
          <path class="cls-5" d="M166.99,338.23s18.3-12.1,27.94-14.04,3.13,3.64-1.81,7.13c-4.94,3.49-16.47,10.31-8.15,8.05,8.32-2.27,11.53-1.21,1.37,5.39-10.16,6.6-12.65,8.31-9.59,4.28,3.06-4.04,12.2-10.09,1.19-6-11.01,4.09-12.9,4.33-8.46-.55,4.44-4.88-5.62-1.14-2.5-4.25Z"/>
          <path class="cls-11" d="M148.86,317.31s2.78-3.77,11.74-7.97c8.95-4.2,24.08-10.39,26.93-12.46,2.85-2.07,10.04-2.2-2.43,4.1-12.48,6.3-21.62,8.87-25.01,10.9-3.39,2.03-13.53,9.12-11.22,5.44Z"/>
          <path class="cls-5" d="M189.2,305.26c-.64-1.18-8.49,2.58-17.9,7.72-9.41,5.14-16.81,9.71-16.17,10.89.64,1.18,8.79-2.04,18.2-7.18s16.51-10.26,15.87-11.44Z"/>
        </g>
        <g>
          <path class="cls-10" d="M126.13,362.74c1.21-7.9,9.3-24.02,3.99-25.94-5.31-1.92-14.36,16.22-14.36,16.22,0,0-16.06-3.37-21.79-6.61,0,0,4.65-18.78.42-20.74s-9.39,10.42-11.17,16.86c-3.38,12.2-17.97,38.76-10.28,49.49,0,0,26.46,14.62,41.64,11.68,0,0,8.46-20.63,11.56-40.96ZM86.17,344.72s5.67-17.57,6.7-16.4c1.03,1.17-2.88,16.94-2.88,16.94-1.38.27-3.82-.54-3.82-.54ZM123.27,355.69s-3.11-1.78-5.6-1.95c0,0,9.34-16,11.79-15.04,2.45.96-6.18,16.98-6.18,16.98Z"/>
          <path class="cls-11" d="M116.02,369.16c-8.8,4.41-14.13,4.21-5.53,5.53s16.63,14.77-2.81,16.25c-19.44,1.48-25.67.44-9.73,5.3,15.94,4.86,10.24,7.31-9.48-.22-17.62-6.73-9.24-34.32-7.04-48.17-4.97,13.41-15.21,34.81-8.5,44.17,0,0,26.46,14.62,41.64,11.68,0,0,8.46-20.63,11.56-40.96.11-.7.27-1.46.47-2.28-2.5,2.94-6.12,6.47-10.58,8.7Z"/>
          <path class="cls-11" d="M78.58,361.96s22.43,3.09,19.24,4.51c-3.19,1.42-3,.31-10.58.04-12.01-.42-14.37-4.59-8.67-4.56Z"/>
          <path class="cls-5" d="M84.8,371.96s18.47,2.95,25.65,7.3c7.17,4.35-.13,4.09-5.25,3.43s-16.29-3.02-9.76.36,7.94,5.89-2.25,4.18c-10.19-1.71-12.74-2.07-8.49-2.85,4.25-.77,13.49.7,4.21-3.08s-10.6-4.72-4.99-5.23c5.6-.51-2.87-3.96.88-4.11Z"/>
          <path class="cls-11" d="M85.47,348.35s3.92-.76,11.97,1.76c8.05,2.53,21.12,7.36,24.1,7.7,2.98.34,7.58,4.41-3.89,1.17-11.47-3.24-18.7-6.9-22-7.58-3.3-.68-13.76-2.07-10.18-3.05Z"/>
          <path class="cls-5" d="M117.76,364.05c.27-1.11-6.82-3.27-15.7-5.47-8.87-2.2-16.16-3.6-16.44-2.49-.27,1.11,6.7,3.79,15.57,5.99,8.87,2.2,16.29,3.08,16.57,1.97Z"/>
        </g>
        <g>
          <g>
            <path class="cls-11" d="M255.23,362.93c.49-1.28-7.77-5.66-18.45-9.78-10.69-4.11-19.75-6.41-20.24-5.12-.49,1.28,7.77,5.66,18.45,9.78s19.75,6.41,20.24,5.12Z"/>
            <path class="cls-10" d="M255.19,362.99l-23.84,43.19c-4.78-.22-9.46-1.22-13.87-2.92-4.41-1.7-8.55-4.1-12.25-7.14l11.28-48.02c-.18,1.37,7.98,5.66,18.47,9.7,10.49,4.04,19.42,6.32,20.21,5.19Z"/>
            <path class="cls-11" d="M244.35,361.08c-1.04,3.26-5,14.8-9.85,18.06-5.67,3.8-10.83,4.17-2.16,6.45,6.02,1.59-2.96,12.76-8.95,19.47,2.6.61,5.27.99,7.97,1.11l23.84-43.19c-.54.77-4.84-.04-10.84-1.91Z"/>
            <path class="cls-11" d="M216.51,348.1l-11.28,48.02c.88.73,1.79,1.41,2.72,2.07.62-5.62,1.91-15.6,3.12-14.87,1.68,1.01,1.69.65,1.96-6.04.22-5.43,4.27-21.24,5.79-26.99-1.53-.97-2.37-1.73-2.31-2.18Z"/>
          </g>
          <path class="cls-5" d="M221.1,354.46s-5.31,22.68-2.28,23.98c8.65,3.72,20.7-8.32,18.84-14.87-.62-2.2-16.56-9.12-16.56-9.12Z"/>
        </g>
        <g>
          <g>
            <path class="cls-11" d="M236.65,274.89c-.75-1.16-9.15,2.94-18.77,9.15-9.62,6.21-16.82,12.18-16.07,13.33s9.15-2.94,18.77-9.15c9.62-6.21,16.82-12.18,16.07-13.33Z"/>
            <path class="cls-10" d="M236.68,274.96l20.84,44.71c-3,3.73-6.56,6.93-10.54,9.49-3.97,2.56-8.35,4.49-12.99,5.69l-32.15-37.42c1,.95,9.28-3.11,18.72-9.2,9.45-6.09,16.55-11.96,16.1-13.27Z"/>
            <path class="cls-11" d="M228.75,282.59c2.02,2.76,9.01,12.76,8.78,18.6-.27,6.83-3.02,11.2,3.94,5.55,4.83-3.93,8.56,9.91,10.46,18.7,2.02-1.75,3.9-3.67,5.59-5.78l-20.84-44.71c.31.89-2.89,3.89-7.93,7.63Z"/>
            <path class="cls-11" d="M201.86,297.43l32.15,37.42c1.11-.29,2.2-.62,3.27-.98-4.17-3.82-11.47-10.74-10.17-11.29,1.8-.76,1.52-.98-3.73-5.15-4.26-3.38-14.64-15.97-18.39-20.58-1.68.66-2.8.89-3.13.58Z"/>
          </g>
          <path class="cls-5" d="M209.69,297.47s15.19,17.66,18.03,15.98c8.1-4.79,5.48-21.62-.91-23.98-2.14-.79-17.12,8-17.12,8Z"/>
        </g>
      </g>
      <g>
        <g>
          <path class="cls-12" d="M165.2,430.88c-1.59,0-2.58-.06-2.91-.09-2.53.16-44.51,2.2-88.12-37.25-18.32-16.58-27.41-36.32-26.27-57.1,1.24-22.75,14.64-45.5,35.84-60.84,42.92-31.05,48.62-38.72,48.21-40.52l-.91-1.85,2.07.02h62.67l-.91,1.85c-.62,1.56,6.42,11.88,45.98,40.5h0c21.2,15.34,34.6,38.08,35.84,60.84,1.13,20.78-7.95,40.52-26.27,57.1-23.36,21.14-46.06,30.14-60.99,33.97-11.36,2.91-19.95,3.37-24.23,3.37ZM134.46,235.82c-.85,3.91-9.23,12.93-49.22,41.86-20.58,14.89-33.58,36.91-34.78,58.9-1.09,19.98,7.7,39.02,25.43,55.06,43.93,39.74,85.88,36.63,86.29,36.59h.11s.11,0,.11,0c.42.04,42.42,3.1,86.29-36.59,17.73-16.04,26.52-35.08,25.43-55.06-1.2-21.99-14.2-44.01-34.78-58.9h0c-21.02-15.21-45.21-34.14-46.91-41.86h-57.98Z"/>
          <path class="cls-12" d="M160.06,430.89c-7.84,0-33.54-2.89-60.69-37.51-18.69-23.83-20.06-48.54-17.93-65.08,2.54-19.7,11.79-39.35,24.73-52.55,31.07-31.69,34.76-39.15,34.2-40.78l-.59-1.71h46.62l-.59,1.71c-.67,1.92,5.29,12.92,32.61,40.78h0c12.94,13.2,22.19,32.85,24.73,52.55,2.13,16.54.76,41.26-17.93,65.08-31.08,39.63-60.27,37.68-62.92,37.42-.34.03-1.1.1-2.23.1ZM142.89,235.82c-.7,4.08-7.3,13.6-34.88,41.72-22.2,22.64-38.93,73.05-6.62,114.25,16.18,20.64,31.85,29.44,42.14,33.2,11.13,4.06,18.54,3.25,18.61,3.24l.15-.02.16.02c.29.04,29.81,3.01,60.75-36.44,32.31-41.2,15.58-91.61-6.62-114.25-12.3-12.54-32.02-33.72-33.28-41.72h-40.41Z"/>
          <path class="cls-12" d="M163.16,430.88c-.36,0-.65-.03-.86-.06-1.09.18-4.36.27-8.83-3.58-6.59-5.67-12.79-17.19-18.41-34.25-13.88-42.12-6.69-93.68,2.85-116.83,10.02-24.33,14.87-38.27,14.41-41.43l-.21-1.47h21.04l-.21,1.47c-.4,2.75,2.96,15.25,13.74,41.43,9.54,23.15,16.73,74.71,2.85,116.83-5.62,17.05-11.81,28.58-18.41,34.25-3.61,3.1-6.44,3.64-7.97,3.64ZM162.3,428.19l.36.09c.09.02,11.78,2.34,24.44-36.09,13.68-41.5,6.6-92.26-2.79-115.05h0c-4.17-10.13-13.43-33.36-13.94-41.31h-15.48c-.3,3.71-2.95,13.05-14.6,41.31-9.39,22.79-16.46,73.55-2.79,115.05,12.66,38.42,24.35,36.11,24.47,36.08l.33-.08Z"/>
          <path class="cls-12" d="M163.15,263.86c-6.12,0-12.18-.33-18.13-1-6.88-.76-13.7-1.98-20.29-3.63l-.16-.04c-3.83-.96-7.61-2.07-11.24-3.31l.83-2.43c3.51,1.2,7.17,2.28,10.88,3.21l.16.04c6.52,1.64,13.28,2.85,20.09,3.61,11.09,1.24,22.58,1.31,34.16.2,6.88-.66,13.88-1.75,20.82-3.23,3.95-.83,7.97-1.82,11.96-2.94l.69,2.47c-4.04,1.13-8.12,2.14-12.12,2.98-7.03,1.5-14.13,2.6-21.11,3.27-5.55.53-11.08.8-16.56.8Z"/>
          <path class="cls-12" d="M160.12,412.24c-5.72,0-11.4-.25-17.01-.76-11.06-.98-22.09-2.97-32.78-5.92-14.67-4.05-28.61-9.85-41.43-17.23l.64-1.11v-1.29s.35,0,.35,0l.3.17c12.64,7.27,26.37,12.98,40.83,16.98,10.54,2.91,21.42,4.87,32.33,5.84,12.44,1.12,25.25.98,38.08-.42,10.85-1.17,21.93-3.28,32.96-6.25l.17-.04c12.25-3.31,24.75-7.79,37.16-13.32l.52,1.16.92.91-.17.17-.23.11c-12.58,5.61-25.27,10.15-37.7,13.5l-.17.04c-11.1,2.99-22.26,5.1-33.19,6.29-7.22.78-14.43,1.18-21.58,1.18Z"/>
          <path class="cls-12" d="M159.1,310.46c-9.52,0-18.95-.49-28.23-1.46-13.75-1.44-27.29-3.98-40.23-7.53-8.11-2.22-16.03-4.85-23.55-7.82l.94-2.39c7.43,2.93,15.26,5.53,23.28,7.73,12.8,3.51,26.2,6.02,39.82,7.45,20.2,2.13,41.12,1.91,62.18-.63,13.05-1.58,26.4-4.09,39.66-7.46,8-2.05,15.98-4.4,23.73-6.98l.81,2.44c-7.81,2.6-15.85,4.96-23.91,7.03-13.37,3.39-26.82,5.92-39.99,7.52-11.58,1.4-23.12,2.1-34.53,2.1Z"/>
          <path class="cls-12" d="M165.55,368.79c-12.01,0-23.88-.7-35.52-2.09-16.13-1.92-31.92-5.19-46.95-9.72-12.21-3.67-23.82-8.12-34.49-13.21l1.11-2.32c10.56,5.04,22.04,9.44,34.13,13.07,14.88,4.49,30.53,7.73,46.51,9.63,20.71,2.48,42.19,2.73,63.84.76,15.21-1.4,30.7-3.92,46.05-7.49,11.29-2.62,22.79-5.87,34.18-9.66l.81,2.44c-11.47,3.82-23.04,7.09-34.41,9.72-15.46,3.59-31.08,6.13-46.4,7.54-9.67.88-19.31,1.32-28.87,1.32Z"/>
        </g>
        <path class="cls-12" d="M136.22,234.65c0-1.62-1.31-2.94-2.94-2.94s-2.94,1.31-2.94,2.94,1.31,2.93,2.94,2.93,2.94-1.31,2.94-2.93Z"/>
        <path class="cls-12" d="M197.29,234.65c0-1.62-1.31-2.94-2.93-2.94s-2.94,1.31-2.94,2.94,1.31,2.93,2.94,2.93,2.93-1.31,2.93-2.93Z"/>
        <path class="cls-12" d="M145.41,234.84c0-1.62-1.31-2.94-2.93-2.94s-2.94,1.31-2.94,2.94,1.31,2.94,2.94,2.94,2.93-1.31,2.93-2.94Z"/>
        <circle class="cls-12" cx="153.91" cy="234.8" r="3.44"/>
        <circle class="cls-12" cx="145.48" cy="261.74" r="4.55"/>
        <path class="cls-12" d="M129.72,258.47c0-2.51-2.04-4.55-4.55-4.55s-4.55,2.04-4.55,4.55,2.04,4.55,4.55,4.55,4.55-2.04,4.55-4.55Z"/>
        <path class="cls-12" d="M117.22,254.26c0-2.51-2.04-4.55-4.55-4.55s-4.55,2.04-4.55,4.55,2.04,4.55,4.55,4.55,4.55-2.04,4.55-4.55Z"/>
        <path class="cls-12" d="M53.33,343.15c0-2.51-2.04-4.55-4.55-4.55s-4.55,2.04-4.55,4.55,2.04,4.55,4.55,4.55,4.55-2.04,4.55-4.55Z"/>
        <path class="cls-12" d="M183.22,262.02c0-2.51-2.04-4.55-4.55-4.55s-4.55,2.04-4.55,4.55,2.04,4.55,4.55,4.55,4.55-2.04,4.55-4.55Z"/>
        <circle class="cls-12" cx="193.44" cy="307.65" r="4.55"/>
        <circle class="cls-12" cx="194.95" cy="366.36" r="4.55"/>
        <path class="cls-12" d="M186.43,409.53c0-2.51-2.04-4.55-4.55-4.55s-4.55,2.04-4.55,4.55,2.04,4.55,4.55,4.55,4.55-2.04,4.55-4.55Z"/>
        <path class="cls-12" d="M148,409.53c0-2.51-2.04-4.55-4.55-4.55s-4.55,2.04-4.55,4.55,2.04,4.55,4.55,4.55,4.55-2.04,4.55-4.55Z"/>
        <circle class="cls-12" cx="110.69" cy="404.04" r="4.55"/>
        <path class="cls-12" d="M76.8,388.89c0-2.51-2.04-4.55-4.55-4.55s-4.55,2.04-4.55,4.55,2.04,4.55,4.55,4.55,4.55-2.04,4.55-4.55Z"/>
        <circle class="cls-12" cx="162.19" cy="429.98" r="4.55"/>
        <path class="cls-12" d="M136.25,308.79c0-2.51-2.04-4.55-4.55-4.55s-4.55,2.04-4.55,4.55,2.04,4.55,4.55,4.55,4.55-2.04,4.55-4.55Z"/>
        <path class="cls-12" d="M134.36,365.6c0-2.51-2.04-4.55-4.55-4.55s-4.55,2.04-4.55,4.55,2.04,4.55,4.55,4.55,4.55-2.04,4.55-4.55Z"/>
        <path class="cls-12" d="M95.5,300.27c0-2.51-2.04-4.55-4.55-4.55s-4.55,2.04-4.55,4.55,2.04,4.55,4.55,4.55,4.55-2.04,4.55-4.55Z"/>
        <path class="cls-12" d="M88.68,356.7c0-2.51-2.04-4.55-4.55-4.55s-4.55,2.04-4.55,4.55,2.04,4.55,4.55,4.55,4.55-2.04,4.55-4.55Z"/>
        <path class="cls-12" d="M72.77,291.61c0-2.51-2.04-4.55-4.55-4.55s-4.55,2.04-4.55,4.55,2.04,4.55,4.55,4.55,4.55-2.04,4.55-4.55Z"/>
        <path class="cls-12" d="M238.7,300.27c0-2.51-2.04-4.55-4.55-4.55s-4.55,2.04-4.55,4.55,2.04,4.55,4.55,4.55,4.55-2.04,4.55-4.55Z"/>
        <path class="cls-12" d="M244.57,358.97c0-2.51-2.04-4.55-4.55-4.55s-4.55,2.04-4.55,4.55,2.04,4.55,4.55,4.55,4.55-2.04,4.55-4.55Z"/>
        <circle class="cls-12" cx="256.86" cy="292.08" r="4.55"/>
        <circle class="cls-12" cx="274.29" cy="349.84" r="4.55"/>
        <circle class="cls-12" cx="252.16" cy="391.44" r="4.55"/>
        <path class="cls-12" d="M220.93,403.02c0-2.51-2.04-4.55-4.55-4.55s-4.55,2.04-4.55,4.55,2.04,4.55,4.55,4.55,4.55-2.04,4.55-4.55Z"/>
        <path class="cls-12" d="M203.86,258.37c0-2.51-2.04-4.55-4.55-4.55s-4.55,2.04-4.55,4.55,2.04,4.55,4.55,4.55,4.55-2.04,4.55-4.55Z"/>
        <circle class="cls-12" cx="212.89" cy="253.79" r="4.55"/>
        <circle class="cls-12" cx="185.06" cy="234.8" r="3.44"/>
        <circle class="cls-12" cx="171.24" cy="234.8" r="3.44"/>
        <path class="cls-12" d="M133.66,236.12c-.28,0-.56-.09-.79-.27-.56-.44-.66-1.24-.22-1.8l33.89-35.48c.26-.33.65-.51,1.08-.49.42.02.8.25,1.02.61l26.79,35.29c.37.6.19,1.39-.41,1.77-.6.37-1.39.19-1.77-.41l-25.82-33.73-32.76,34.03c-.25.32-.63.49-1.01.49Z"/>
        <path class="cls-12" d="M142.56,236.12c-.22,0-.44-.06-.64-.17-.62-.35-.83-1.14-.47-1.75l24.99-35.48c.25-.42.72-.67,1.2-.64.49.03.92.34,1.1.8l17.47,35.29c.27.66-.05,1.41-.71,1.67-.66.27-1.41-.05-1.67-.71l-16.48-32.85-23.68,33.2c-.24.41-.67.64-1.11.64Z"/>
        <path class="cls-12" d="M154.21,236.12c-.13,0-.25-.02-.38-.06-.68-.21-1.06-.93-.85-1.6l13.35-35.48c.18-.59.75-.97,1.36-.9.61.06,1.09.55,1.15,1.16l4.12,35.29c.07.71-.45,1.33-1.16,1.4-.7.07-1.33-.45-1.4-1.16l-3.51-28.88-11.46,29.33c-.17.55-.68.91-1.23.91Z"/>
        <circle class="cls-12" cx="167.42" cy="200.83" r="9.8"/>
      </g>
      <g>
        <polygon class="cls-10" points="67.64 327.69 63.79 331.01 68.57 338.04 75.2 333.79 67.64 327.69"/>
        <polygon class="cls-7" points="105.83 342.41 113.12 340.16 112.59 344.67 108.88 347.19 105.83 342.41"/>
        <polygon class="cls-11" points="118.43 325.44 119.89 330.61 122.94 326.5 121.74 323.85 118.43 325.44"/>
        <polygon class="cls-10" points="60.74 363.23 66.84 369.07 71.09 362.97 67.11 360.85 60.74 363.23"/>
        <polygon class="cls-11" points="57.69 354.48 59.95 356.73 64.99 355.67 63.13 353.95 57.69 354.48"/>
        <polygon class="cls-7" points="125.46 395.32 125.59 401.42 129.83 401.82 129.97 395.59 125.46 395.32"/>
        <polygon class="cls-11" points="125.72 383.12 126.52 387.63 128.24 385.91 129.04 380.6 125.72 383.12"/>
        <polygon class="cls-11" points="140.84 338.7 143.63 343.87 146.41 339.49 145.08 336.71 140.84 338.7"/>
        <polygon class="cls-7" points="179.17 376.49 180.76 383.65 184.47 380.21 186.59 375.17 179.17 376.49"/>
        <path class="cls-7" d="M196.41,388.16l-.8,6.37s1.59-.27,2.65-.53,2.12-6.37,2.12-6.37l-3.98.53Z"/>
        <path class="cls-11" d="M201.44,375.43l1.5,3.09s3.54-3.8,3.45-4.07-2.03-4.07-2.03-4.07l-2.92,5.04Z"/>
        <polygon class="cls-10" points="194.46 401.6 198.62 399.83 201 401.78 197.2 404.34 194.46 401.6"/>
        <polygon class="cls-10" points="257.05 370.39 253.87 378 258.47 375.87 263.42 370.39 262.18 368.98 257.05 370.39"/>
        <polygon class="cls-11" points="259.35 326.9 258.82 333.79 262.71 333.79 262.54 328.49 259.35 326.9"/>
        <polygon class="cls-11" points="226.11 341.04 231.06 339.27 234.6 343.69 233.36 346.7 226.11 341.04"/>
        <polygon class="cls-11" points="218.17 331.72 220.52 330.88 222.21 332.98 221.62 334.41 218.17 331.72"/>
        <polygon class="cls-7" points="251.22 344.22 259.18 342.46 260.41 344.76 254.76 349 251.22 344.22"/>
        <polygon class="cls-10" points="194.64 276.68 197.29 282.34 201.36 280.57 199.06 274.91 194.64 276.68"/>
        <polygon class="cls-7" points="216.03 266.6 220.1 272.61 224.17 271.55 221.16 266.96 216.03 266.6"/>
        <polygon class="cls-10" points="184.47 247.73 182.95 253.56 186.66 255.68 189.18 253.43 184.47 247.73"/>
        <polygon class="cls-11" points="196.27 266.29 199.99 265.23 202.9 268.41 200.65 269.87 196.27 266.29"/>
        <polygon class="cls-11" points="128.77 269.87 132.88 266.82 135.54 267.88 135.4 272.26 131.29 272.53 128.77 269.87"/>
        <polygon class="cls-7" points="138.32 247.2 137.66 252.24 140.05 252.24 143.49 248.79 138.32 247.2"/>
      </g>
      <rect class="cls-2" x="319.71" y="187.91" width="1.64" height="459.39"/>
    </g>
    <g id="TEXTS">
      <text class="cls-3" transform="translate(169.48 92.97)"><tspan x="0" y="0">Ocean Plastics Pollution </tspan></text>
      <g>
        <text class="cls-4" transform="translate(74.86 480.28)"><tspan x="0" y="0">57 Million tons</tspan></text>
        <text class="cls-4" transform="translate(101.38 514.72)"><tspan x="0" y="0">of plastics</tspan><tspan x="4.81" y="32.55">each year</tspan></text>
      </g>
      <text class="cls-1" transform="translate(492.13 240.61)"><tspan x="0" y="0">Plastic Bottles</tspan></text>
      <text class="cls-6" transform="translate(679.19 241.95)"><tspan x="0" y="0">25%</tspan></text>
      <text class="cls-1" transform="translate(492.13 360.32)"><tspan x="0" y="0">Plastic Glass</tspan></text>
      <text class="cls-6" transform="translate(679.19 363)"><tspan x="0" y="0">15%</tspan></text>
      <text class="cls-1" transform="translate(492.13 475.14)"><tspan x="0" y="0">Food Packaging</tspan></text>
      <text class="cls-6" transform="translate(679.19 476.48)"><tspan x="0" y="0">10%</tspan></text>
      <text class="cls-1" transform="translate(492.13 597.22)"><tspan x="0" y="0">Plastic Bag</tspan></text>
      <text class="cls-6" transform="translate(679.19 601.45)"><tspan x="0" y="0">50%</tspan></text>
    </g>
  </g>
</svg>