<?xml version="1.0" encoding="UTF-8"?>
<svg xmlns="http://www.w3.org/2000/svg" version="1.1" viewBox="0 0 89.71 85">
  <!-- Generator: Adobe Illustrator 28.7.1, SVG Export Plug-In . SVG Version: 1.2.0 Build 142)  -->
  <g>
    <g id="Layer_1">
      <g id="Layer_1-2" data-name="Layer_1">
        <path d="M20.52,59.75c0,.64-.52,1.17-1.17,1.17h-9.62c-.65,0-1.17-.52-1.17-1.17v-14.92c0-.65.52-1.17,1.17-1.17h9.62c.65,0,1.17.52,1.17,1.17s-.52,1.17-1.17,1.17h-8.45v12.59h8.45c.65,0,1.17.52,1.17,1.17ZM89.7,23.71c0,1.45-.61,2.75-1.57,3.68.96.77,1.57,1.94,1.57,3.26v4.57c0,1.19-.5,2.25-1.29,3.01.79.76,1.29,1.83,1.29,3.01v4.57c0,1.19-.5,2.25-1.29,3.01.79.76,1.29,1.82,1.29,3.01v4.57c0,1.46-.75,2.74-1.88,3.49,1.16,1.1,1.88,2.64,1.88,4.36v7.36c0,3.31-2.69,6-6,6h-18.64c-3.31,0-6-2.69-6-6v-7.36c0-1.71.72-3.27,1.88-4.36-1.14-.75-1.88-2.03-1.88-3.49v-4.57c0-1.19.49-2.25,1.29-3.01-.79-.76-1.29-1.82-1.29-3.01v-4.57c0-1.19.49-2.25,1.29-3.01-.79-.76-1.29-1.82-1.29-3.01v-4.57c0-1.32.62-2.5,1.57-3.26-.97-.93-1.57-2.23-1.57-3.68v-3c0-4.24,3.27-7.72,7.42-8.07l1.05-1.75c-.46-.16-.78-.59-.78-1.1V1.17c0-.64.52-1.17,1.17-1.17h12.95c.64,0,1.17.52,1.17,1.17v8.62c0,.51-.33.94-.78,1.1l1.05,1.75c4.15.35,7.42,3.83,7.42,8.07v3h0ZM69.08,8.62h10.62V2.33h-10.62v6.29ZM87.37,64.27c0-2.02-1.64-3.67-3.67-3.67h-18.64c-2.02,0-3.67,1.64-3.67,3.67v7.36c0,2.02,1.64,3.67,3.67,3.67h5.94c3.08,0,5.59-2.51,5.59-5.59,0-.64.52-1.17,1.17-1.17s1.17.52,1.17,1.17c0,2.18-.89,4.16-2.31,5.59h7.09c2.02,0,3.67-1.64,3.67-3.67,0,0,0-7.36,0-7.36ZM87.37,51.85c0-1.02-.83-1.84-1.84-1.84h-22.3c-1.02,0-1.84.83-1.84,1.84v4.57c0,1.02.83,1.84,1.84,1.84h22.29c1.02,0,1.84-.83,1.84-1.84v-4.57h0ZM87.37,41.25c0-1.02-.83-1.84-1.84-1.84h-22.3c-1.02,0-1.84.83-1.84,1.84v4.57c0,1.02.83,1.84,1.84,1.84h22.29c1.02,0,1.84-.83,1.84-1.84v-4.57h0ZM87.37,20.71c0-3.18-2.59-5.77-5.77-5.77-.41,0-.79-.22-1-.57l-2.03-3.42h-8.36l-2.03,3.42c-.21.35-.59.57-1,.57-3.18,0-5.77,2.59-5.77,5.77v3c0,1.52,1.25,2.77,2.77,2.77h15.21c.64,0,1.17.52,1.17,1.17s-.52,1.17-1.17,1.17h-16.14c-1.02,0-1.84.83-1.84,1.84v4.57c0,1.02.83,1.84,1.84,1.84h22.29c1.02,0,1.84-.83,1.84-1.84v-4.57c0-1.02-.83-1.84-1.84-1.84h-2.08c-.64,0-1.17-.52-1.17-1.17s.52-1.17,1.17-1.17h1.16c1.52,0,2.77-1.25,2.77-2.77v-3h0ZM56.49,48.3v5.86c0,.65-.52,1.17-1.17,1.17h-1.54l-4.34,28.69c-.09.57-.58.99-1.16.99h-20.56c-.58,0-1.07-.42-1.16-.99l-1.32-8.73H7.32c-4.04,0-7.32-4.12-7.32-9.18V10.68c0-2.78,1.85-5.04,4.14-5.04h6.14c.65,0,1.17.52,1.17,1.17v20.71c0,1.03.58,1.78,1.1,1.78h17.63c.52,0,1.1-.77,1.1-1.78V6.81c0-.64.52-1.17,1.17-1.17h6.14c2.28,0,4.14,2.26,4.14,5.04v28.32h6.44c.47,0,.89.28,1.08.71l3.15,7.43h1.96c.65,0,1.17.52,1.17,1.17h0ZM48.38,41.33h-20.73l-2.46,5.81h25.66s-2.46-5.81-2.46-5.81ZM24.92,72.95l-2.66-17.61h-1.54c-.65,0-1.17-.52-1.17-1.17v-5.86c0-.65.52-1.17,1.17-1.17h1.95l3.15-7.43c.18-.43.61-.71,1.08-.71h13.51V10.68c0-1.45-.85-2.71-1.8-2.71h-4.97v19.56c0,2.27-1.53,4.12-3.43,4.12H12.55c-1.89,0-3.43-1.84-3.43-4.12V7.97h-4.97c-.97,0-1.8,1.27-1.8,2.71v55.41c0,3.72,2.28,6.86,4.98,6.86h17.6,0ZM51.43,55.33h-26.82l4.14,27.34h18.56l4.14-27.34h0ZM54.17,49.47H21.87v3.53h32.3v-3.53ZM31.24,69c0-3.74,3.04-6.79,6.79-6.79s6.79,3.04,6.79,6.79-3.04,6.79-6.79,6.79-6.79-3.04-6.79-6.79ZM33.57,69c0,2.45,1.99,4.46,4.46,4.46s4.46-1.99,4.46-4.46-1.99-4.46-4.46-4.46-4.46,1.99-4.46,4.46Z"/>
      </g>
    </g>
  </g>
</svg>