<?xml version="1.0" encoding="UTF-8"?>
<svg xmlns="http://www.w3.org/2000/svg" version="1.1" viewBox="0 0 69.77 85">
  <!-- Generator: Adobe Illustrator 28.7.1, SVG Export Plug-In . SVG Version: 1.2.0 Build 142)  -->
  <g>
    <g id="Layer_1">
      <g id="Layer_1-2" data-name="Layer_1">
        <path d="M33.49,5.1V1.4c0-.78.63-1.4,1.4-1.4s1.4.63,1.4,1.4v3.7c0,.78-.63,1.4-1.4,1.4s-1.4-.63-1.4-1.4ZM18.78,9.78c.25.45.73.7,1.21.7.23,0,.48-.06.7-.19.67-.38.89-1.24.51-1.91l-1.85-3.2c-.38-.67-1.24-.89-1.91-.51-.67.38-.89,1.24-.51,1.91l1.85,3.2h0ZM5.19,19.36l3.2,1.85c.22.13.46.19.7.19.48,0,.96-.24,1.21-.7.38-.67.16-1.52-.51-1.91l-3.2-1.85c-.67-.38-1.52-.16-1.91.51-.38.67-.16,1.52.51,1.91h0ZM6.5,34.89c0-.78-.63-1.4-1.4-1.4H1.4c-.78,0-1.4.63-1.4,1.4s.63,1.4,1.4,1.4h3.7c.78,0,1.4-.63,1.4-1.4ZM8.39,48.56l-3.2,1.84c-.67.38-.9,1.24-.51,1.91.25.45.73.7,1.21.7.23,0,.48-.06.7-.19l3.2-1.84c.67-.38.9-1.24.51-1.91-.38-.67-1.24-.9-1.91-.51h0ZM38.1,11.79c0-2.76,2.25-5.01,5.01-5.01h2.38V1.41c0-.78.63-1.4,1.4-1.4h20.77c.78,0,1.4.63,1.4,1.4v20.77c0,.78-.63,1.4-1.4,1.4h-6.78c-.78,0-1.4-.63-1.4-1.4v-3.77c0-1.22-.99-2.22-2.22-2.22s-2.22,1-2.22,2.22v3.77c0,.78-.63,1.4-1.4,1.4h-6.77c-.78,0-1.4-.63-1.4-1.4v-5.36h-2.38c-2.77,0-5.01-2.25-5.01-5.01h.02ZM40.89,11.79c0,1.22,1,2.22,2.22,2.22h3.77c.78,0,1.4.63,1.4,1.4v5.36h3.96v-2.37c0-2.77,2.25-5.01,5.01-5.01s5.01,2.25,5.01,5.01v2.37h3.97V2.8h-17.98v5.36c0,.78-.63,1.4-1.4,1.4h-3.77c-1.22,0-2.22.99-2.22,2.22h.01ZM59.91,66.72c0,4.64-3.78,8.42-8.42,8.42s-8.42-3.78-8.42-8.42,3.78-8.42,8.42-8.42,8.42,3.78,8.42,8.42ZM57.1,66.72c0-3.1-2.53-5.63-5.63-5.63s-5.63,2.53-5.63,5.63,2.53,5.63,5.63,5.63,5.63-2.53,5.63-5.63ZM69.76,64.54v4.35c0,.55-.32,1.04-.82,1.27l-2.89,1.33-.89,2.17,1.1,2.99c.19.51.06,1.08-.32,1.48l-3.07,3.07c-.38.38-.97.51-1.48.32l-2.99-1.1-2.17.89-1.33,2.89c-.22.49-.72.82-1.27.82h-4.35c-.55,0-1.04-.32-1.27-.82l-1.33-2.89-2.17-.89-.79.29-.04.14c-1.04,3.62-3.26,4.18-4.49,4.18h-8.67c-1.23,0-3.45-.54-4.49-4.16l-.85-2.97c-2.09-.19-3.78-1.78-3.78-3.67v-3.46h-.56c-.78,0-1.4-.63-1.4-1.4s.63-1.4,1.4-1.4h.56v-3.46c0-1.24.69-2.35,1.74-3.02-.76-3.72-2.61-5.79-4.91-8.36-1.06-1.19-2.16-2.41-3.23-3.91-3.02-4.19-4.61-9.14-4.61-14.31,0-13.51,10.98-24.5,24.49-24.5.78,0,1.4.63,1.4,1.4v9.09c0,.78-.63,1.4-1.4,1.4h-3.77c-1.22,0-2.22,1-2.22,2.22s1,2.22,2.22,2.22h3.77c.78,0,1.4.63,1.4,1.4v5.36h5.09v-2.38c0-2.77,2.25-5.01,5.01-5.01s5.01,2.25,5.01,5.01v2.38h6.57c.78,0,1.4.63,1.4,1.4,0,5.13-1.57,10.04-4.54,14.2.03.05.05.1.08.15l1.33,2.89,2.17.89,2.99-1.1c.51-.19,1.08-.06,1.48.32l3.07,3.07c.38.38.51.96.32,1.48l-1.1,2.99.89,2.16,2.89,1.34c.49.22.82.72.82,1.27h-.01ZM20.33,51.24c2.37,2.65,4.61,5.16,5.55,9.55h11.49l.41-1.01-1.1-2.99c-.19-.51-.06-1.08.32-1.48l3.07-3.07c.38-.38.96-.51,1.48-.32l2.99,1.1,2.17-.89,1.33-2.89c.22-.5.72-.82,1.27-.82h2.53c.22-.29.45-.57.66-.87,2.39-3.33,3.77-7.19,4.04-11.26h-6.52c-.78,0-1.4-.63-1.4-1.4v-3.77c0-1.22-1-2.22-2.22-2.22s-2.22,1-2.22,2.22v3.77c0,.78-.63,1.4-1.4,1.4h-7.89c-.78,0-1.4-.63-1.4-1.4v-5.36h-2.38c-2.77,0-5.01-2.25-5.01-5.01s2.25-5.01,5.01-5.01h2.38v-6.25c-11.31.72-20.29,10.16-20.29,21.65,0,4.58,1.41,8.97,4.08,12.67.99,1.37,2.04,2.54,3.05,3.68h0l.03-.02ZM24.21,67.94h8.98v-3.39c0-.36.15-.7.38-.96h-8.08c-.75,0-1.27.47-1.27.89v3.46h0ZM25.6,75.08h11.65l.53-1.43-.89-2.17-1.65-.75h-11.04v3.46c0,.4.65.89,1.39.89h0ZM40.43,81.43c-.13-.06-.24-.15-.35-.25l-3.07-3.07c-.07-.07-.13-.15-.18-.23h-8.71l.63,2.18c.41,1.42,1.02,2.15,1.81,2.15h8.67c.48,0,.87-.25,1.21-.76h0ZM66.96,65.44l-2.57-1.19c-.32-.15-.57-.41-.7-.73l-1.31-3.17c-.14-.32-.14-.69-.02-1.02l.98-2.66-1.81-1.81-2.66.98c-.33.12-.69.12-1.02-.02l-3.17-1.31c-.32-.14-.58-.38-.73-.7l-1.19-2.57h-2.55l-1.19,2.57c-.15.32-.41.57-.73.7l-3.17,1.31c-.32.14-.69.14-1.02.02l-2.66-.98-1.81,1.81.98,2.66c.12.33.12.69-.02,1.02l-1.31,3.17c-.14.32-.38.58-.7.73l-2.57,1.19v2.55l2.57,1.19c.32.15.57.41.7.73l1.31,3.17c.14.32.14.69.02,1.02l-.98,2.66,1.81,1.81,2.66-.98c.33-.12.69-.12,1.02.02l3.17,1.31c.32.14.58.38.73.7l1.19,2.57h2.55l1.19-2.57c.15-.32.41-.57.73-.7l3.17-1.31c.32-.14.69-.14,1.02-.02l2.66.98,1.81-1.81-.98-2.66c-.12-.33-.12-.69.02-1.02l1.31-3.17c.14-.32.38-.58.7-.73l2.57-1.19v-2.55h0Z"/>
      </g>
    </g>
  </g>
</svg>