<?xml version="1.0" encoding="UTF-8"?>
<svg xmlns="http://www.w3.org/2000/svg" version="1.1" viewBox="0 0 510.73 596.62">
  <defs>
    <style>
      .cls-1, .cls-2, .cls-3, .cls-4, .cls-5, .cls-6, .cls-7, .cls-8, .cls-9, .cls-10 {
        fill: #fff;
      }

      .cls-1, .cls-5 {
        opacity: .2;
      }

      .cls-11 {
        fill: #263238;
      }

      .cls-12, .cls-6, .cls-8 {
        opacity: .3;
      }

      .cls-13 {
        opacity: .75;
      }

      .cls-13, .cls-14 {
        fill: #e0e0e0;
      }

      .cls-3 {
        opacity: .5;
      }

      .cls-15, .cls-10 {
        opacity: .4;
      }

      .cls-4 {
        opacity: .9;
      }

      .cls-5, .cls-8, .cls-9, .cls-10 {
        isolation: isolate;
      }

      .cls-16, .cls-17 {
        opacity: .21;
      }

      .cls-16, .cls-18 {
        fill: #407bff;
      }

      .cls-19 {
        opacity: .68;
      }

      .cls-19, .cls-20 {
        fill: #f5f5f5;
      }

      .cls-7 {
        opacity: .1;
      }

      .cls-21 {
        fill: #ebebeb;
      }

      .cls-22 {
        display: none;
      }

      .cls-23 {
        fill: #e6e6e6;
      }

      .cls-9 {
        opacity: .6;
      }
    </style>
  </defs>
  <!-- Generator: Adobe Illustrator 28.7.1, SVG Export Plug-In . SVG Version: 1.2.0 Build 142)  -->
  <g>
    <g id="Background_complete">
      <path class="cls-19" d="M149.63,137.23c6.4-1.41,104.45-10.96,141.98-10.53,37.52.43,98.68,19.93,87.06,31.81-11.62,11.88-104.82,9.05-127.81,10.81-22.99,1.76-51.07-19.72-35.02,4.56,16.05,24.29,113.29,21.88,133.67,13.34,20.37-8.54,65.84.76,89.45,1.81,23.6,1.05,53.22,19.39,32.13,35.08s-100.05,9.14-92.32,2.09c7.73-7.04,44.23-.94,47.36-8.38,3.13-7.43-58.36-13.97-67.82-9.54s-41.36,6.79-58.85,6-43.21,6.18-27.64,13.15c15.58,6.97,69.61,21.44,74.47,17.73s11.44,16.23,27.87,16.54c16.43.31,84.02,2.97,91.63,10.34,7.61,7.37,22.8,10.34,27.69,13.9s-6.58,24.83-55.77,20.81c-49.2-4.02-75.31,11.49-87.02,13.29-11.71,1.8-111.91-17.1-143.08-10.99s-51.24,1.29-64.51,7.02c-13.27,5.73,46.33,6.9,72.66,8.72,26.33,1.82,66.06,6.73,92.02,3.41,25.95-3.32,29.11-4.9,67.64.12,38.53,5.02,52.84-.14,61.89-.94,9.05-.8-7.11,27.6-32.6,22.46s-38.09,2.96-43.09,1.29,18.02,14.5,40.34,15.07,56.06,8.82,56.15,3.75c.09-5.07-6.33-7.76-8.38-9.63-2.04-1.87,6.7-3.44,27.87,3.31s42.03,26.82-9.64,21.97-33.94,0-100.5,1.2-136.75-.62-166.96-1.95c-30.21-1.33,64.41,18.68,80.37,15.51s52.19-4.3,72.47-.36c20.28,3.94,62.77,4.98,67.21,7.16s-25.27,21.22-45.77,22.26c-20.5,1.03-53.9-3.37-75.46-.54-21.56,2.83-19.31,8.29,1.72,11.22,21.03,2.93,48.29,11.72,69.49,9.55,21.2-2.17,49.91-8.53,39.19,6.54-10.72,15.07-86.06,11.89-139.4,15.96-53.34,4.07-11.36,6.26-78.36,3.33-66.99-2.92-67.78-7.96-87.07-13.06-19.29-5.09-74.22-16.13-12.6-13.92,61.62,2.21,94.76,7.96,107.75,1.41,12.99-6.55,78.24,1.81,29.61-8.05-48.63-9.86-38.16-10.73-82.61-13.31-44.45-2.59-11.97-2.34-53.27-6.79-41.3-4.45-27.92,3.68-46.07-8.45-18.15-12.14-44.46-11.06-14.22-21.75,30.25-10.69,86.6-2.49,82.25-11.9-4.36-9.41-3.23-13.58-9.05-13.22s61.11-1.16,74.7-5.42c13.58-4.25,21-9.42-4.19-12.5s-45.18-3.97-65.08-1.01c-19.91,2.96-39.1-4.29-32.53,3.02s13.09,12.8-12.78,11.96c-25.88-.84-43.95-9.05-49.79-11.1-5.84-2.06-35.4-18.1.45-24.13,35.86-6.04,54.57-1.22,62.69-6.11,8.12-4.9,25.02-6.98,12.37-13.77-12.65-6.79-25.52-.52,7.76-14.49,33.27-13.97,80.89-20.14,80.89-20.14,0,0,48.14,21.38,57.11,4.58s-48.11-21.97-85.84-23.27c-37.73-1.29-69.26,10.96-86.4,4.2-17.14-6.76-39.67-2.35-25.22-19.31,14.45-16.96,39.09-9.38,49.31-21.74,10.22-12.36-15.78-18.86-30.92-18.5-15.14.36,30.57-7.86,50.98-12.99,20.41-5.13,54.12-22.4,54.12-22.4,0,0-7.55-6.39-23.65-13.08-16.11-6.7-11.19-8.54,8.98-13.02Z"/>
      <path class="cls-13" d="M29.73,135.24s6.77,1.6,10.16,6.31c0,0,.75-14.57-6.57-20.18,0,0,18.17,5.79,23.72,19.39l3.4,1.84-2.47,4.06s-6.97,12.47-12.85,13.27c.44-3.13-.61-6.29-2.83-8.53l-5.82,2.79,2.43-7.54c-2.83-3.98-5.9-7.79-9.18-11.41Z"/>
      <path class="cls-13" d="M325.24,184.09c-9.72,0-16.6-4.86-25.85-7.63.22-1.93.65-3.84,1.29-5.67-3.62.6-7.07,1.95-10.13,3.97-7.15-.47-14.32.46-21.12,2.73,0,0,4.95,5.35,14.89,8.04,1.54.43,3.15.78,4.82,1.07,2.44,2.27,5.33,3.99,8.48,5.07l-.89-4.07c9.44.7,18.92.58,28.33-.36,0,0,.34,5.17,5.29,6.37v-6.84l3.61-9.28c-5.64.71-8.71,6.61-8.71,6.61Z"/>
      <path class="cls-13" d="M155.04,428.06c-9.66,1.05-17.02-3.04-26.52-4.79.01-1.95.24-3.88.67-5.78-3.53.98-6.82,2.7-9.65,5.04-7.16.3-14.19,2-20.7,4.99,0,0,5.5,4.79,15.67,6.39,1.58.26,3.22.43,4.91.55,2.67,1.99,5.73,3.4,8.98,4.12l-1.33-3.95c9.46-.32,18.87-1.46,28.13-3.42,0,0,.89,5.1,5.94,5.77l-.74-6.8,2.58-9.62c-5.53,1.31-7.95,7.51-7.95,7.51Z"/>
      <path class="cls-13" d="M402.66,267.78s3.88-4.98,6.13-7.92c.1-.14.22-.27.34-.41s.27-.35.43-.52h0c-.32-1.83-.92-3.6-1.78-5.25,2.09-.41,4.25.33,5.64,1.95l.74-.4h.09c.31-.16.62-.3.93-.43h.15c.26-.1.5-.19.76-.27h.08l.39-.1.26-.08.79-.16h0c.26,0,.5-.08.75-.1h1.77l.65.09h.08c.24.04.49.09.72.16,1.39.37,2.71,1,3.88,1.85.63.44,1.19.98,1.65,1.59,0,0-.06.52-.26,1.29h0v.66c0,.06,0,.14-.06.21,0,.05,0,.1,0,.16-.02.07-.04.13-.06.19-.01.07-.04.14-.06.21,0,.06,0,.11,0,.17l-.12.3v.09c-.16.4-.35.83-.56,1.29h0c-.06.14-.13.28-.21.43h0l-.22.39v.08l-.22.36v.09l-.23.36v.1l-.23.36-.08.1-.26.35-.08.1-.28.35-.08.1-.31.34-.09.1-.31.34-.1.1-.35.34-.09.08-.39.35-.08.06-.47.37h0l-.54.4-.39.25-.25.16-.53.31c-.48.26-.97.49-1.47.7-.87,2.58-2.69,4.74-5.09,6.02.34-1.57.43-3.18.27-4.78-3.38.41-6.8.3-10.15-.31-.26,1.11-.64,2.2-1.14,3.23-.55,1.32-1.52,2.43-2.77,3.14h0c.06-1.07.06-2.14,0-3.21,0-.72-.14-1.44-.39-2.12-.04-.09-.09-.18-.14-.26-.87-1.18-3.75-6.94-3.75-6.94.56.03,1.12.12,1.67.25,2.06.64,3.93,1.8,5.43,3.35Z"/>
      <path class="cls-13" d="M88.13,285.88c5.35.45,4.43,6.66,2.06,6.27.72-1.23.3-2.82-.94-3.53-.34-.2-.72-.32-1.12-.34-2.25-.49-4.6,4.86.49,6.09,5.09,1.23,5.96-1.99,6.1-6.06s-6.67-4.82-8.08-8.01-1.86-9.27,2.02-12.41,2.15-4.39.98-4.39c-2,.42-3.97,1.01-5.87,1.76l-1.24-2.02c4.67-1.29,6.7-6.86,6.7-6.86l5.17.34c2.59,1.37,4.18,9.62,4.55,16.31l4.33-2.35s-.67,2.29,0,3.13c.55.59,1.24,1.04,2,1.29,0,0-2.84,1.29-2.84,2.37.08.77.4,1.5.92,2.08l-4.34-2.39c0,1.31-.16,2.62-.52,3.88-1.5,4.47.71,11.74-2.74,15.69-3.04,3.49-8.72,1.5-11.49-1.54-2.77-3.04-1.49-9.73,3.86-9.28Z"/>
      <g class="cls-17">
        <path class="cls-23" d="M407.17,98.14l-22.09,14.88c-.54.28.13,2.97,2.03,7.19,1.9,4.22,3.45,6.46,3.99,6.19l24.69-9.15-8.61-19.1Z"/>
        <path class="cls-21" d="M415.94,116.81c-.21-1.74-1.48-5.5-3.36-9.68-1.88-4.18-3.82-7.6-4.97-8.86-.07-.08-.15-.16-.21-.22l-.79.53c.12,1.64,1.43,5.53,3.38,9.88,1.96,4.36,3.98,7.88,5.1,9l.89-.31c-.02-.12-.02-.22-.04-.34Z"/>
        <path class="cls-14" d="M412.87,106.98c-.19-.42-4.63-10.25-6.17-9.46-.3.15-.37.65-.3,1.33.3,2.9,3.2,9.42,3.37,9.72.17.3,3.08,6.83,5.01,8.88.46.49.86.72,1.15.56,1.49-.76-2.92-10.6-3.07-11.03ZM407.2,98.32c.38.36.72.77,1.02,1.23h0c1.58,2.43,2.96,5.01,4.12,7.71,1.25,2.66,2.27,5.43,3.05,8.26.15.53.24,1.07.26,1.61h0c0,.08-.02.16-.04.23-.08-.02-.15-.06-.22-.13-.75-.62-2.72-3.59-5.11-8.92-2.39-5.33-3.33-8.83-3.32-9.84,0-.09,0-.18.04-.26.07.02.13.06.2.1"/>
        <path class="cls-10" d="M407.2,98.32c.38.36.72.77,1.02,1.23h0c1.58,2.43,2.96,5.01,4.12,7.71,1.25,2.66,2.27,5.43,3.05,8.26.15.53.24,1.07.26,1.61h0c0,.08-.02.16-.04.23-.08-.02-.15-.06-.22-.13-.75-.62-2.72-3.59-5.11-8.92-2.39-5.33-3.33-8.83-3.32-9.84,0-.09,0-.18.04-.26.07.02.13.06.2.1"/>
      </g>
      <g class="cls-17">
        <rect class="cls-14" x="108.98" y="508.44" width="319.63" height=".16"/>
        <rect class="cls-14" x="142.01" y="517.56" width="10.27" height=".16"/>
        <rect class="cls-14" x="217.88" y="515.83" width="34.22" height=".16"/>
        <rect class="cls-14" x="152.92" y="523.5" width="23.17" height=".16"/>
        <rect class="cls-14" x="350.84" y="515.75" width="27.61" height=".16"/>
        <rect class="cls-14" x="384.15" y="515.75" width="4.05" height=".16"/>
        <rect class="cls-14" x="311.12" y="519.73" width="34.45" height=".16"/>
      </g>
    </g>
    <g id="Background_simple" class="cls-22">
      <g>
        <path class="cls-18" d="M383.87,196.15c-12.67-11.87-29.22-20.58-49.33-24.9-23.69-5.1-55.78-5.35-82.99,17.78-50.24,42.71-27.17,81.64-69.13,97.34-47.53,17.79-93.24,54.62-82.54,102.11,20.32,90.2,228.95,83.54,297.03,5.8,42.38-48.4,54.2-135.1-13.05-198.12Z"/>
        <path class="cls-4" d="M383.87,196.15c-12.67-11.87-29.22-20.58-49.33-24.9-23.69-5.1-55.78-5.35-82.99,17.78-50.24,42.71-27.17,81.64-69.13,97.34-47.53,17.79-93.24,54.62-82.54,102.11,20.32,90.2,228.95,83.54,297.03,5.8,42.38-48.4,54.2-135.1-13.05-198.12Z"/>
      </g>
    </g>
    <g id="Shadows">
      <g class="cls-17">
        <path class="cls-20" d="M494.32,577.54c0,6.48-61.5,11.73-137.36,11.73s-137.36-5.25-137.36-11.73,61.5-11.73,137.36-11.73,137.36,5.25,137.36,11.73Z"/>
      </g>
      <g class="cls-17">
        <path class="cls-20" d="M118.65,548.66c0,2.48-11.93,4.49-26.64,4.49s-26.64-2.01-26.64-4.49,11.93-4.49,26.64-4.49,26.64,2.01,26.64,4.49Z"/>
      </g>
      <g class="cls-17">
        <path class="cls-20" d="M221.28,544.77c0,2.56-13.41,4.64-29.96,4.64s-29.96-2.08-29.96-4.64,13.41-4.64,29.96-4.64,29.96,2.08,29.96,4.64Z"/>
      </g>
    </g>
    <g id="Rocks">
      <g class="cls-17">
        <path class="cls-11" d="M134.18,508.9s5.96-8.83,8.13-9.37,13.08.36,14.26,1.92c1.44,1.9,4.82,6.99,4.82,6.99l-27.21.46Z"/>
        <path class="cls-3" d="M134.18,508.9s5.96-8.83,8.13-9.37,13.08.36,14.26,1.92c1.44,1.9,4.82,6.99,4.82,6.99l-27.21.46Z"/>
        <path class="cls-1" d="M137.23,504.69s4.68,2.42,7.57,1.35c2.89-1.07,8.73-5.77,8.73-5.77,1.25.26,2.72.74,3.04,1.18.27.36-5.04,4.09-10.61,5.59-5.57,1.49-7.31-1.91-10.61.18,0,0,1.44-2.07,1.87-2.53Z"/>
      </g>
      <g class="cls-17">
        <path class="cls-11" d="M262.15,542.22s5.96-8.82,8.13-9.37,13.08.36,14.26,1.92c1.44,1.9,4.82,6.99,4.82,6.99l-27.21.46Z"/>
        <path class="cls-3" d="M262.15,542.22s5.96-8.82,8.13-9.37,13.08.36,14.26,1.92c1.44,1.9,4.82,6.99,4.82,6.99l-27.21.46Z"/>
        <path class="cls-1" d="M265.19,538s4.68,2.42,7.57,1.35c2.89-1.07,8.73-5.77,8.73-5.77,1.25.26,2.72.74,3.04,1.18.27.36-5.04,4.09-10.61,5.59-5.57,1.49-7.31-1.91-10.61.18,0,0,1.44-2.07,1.87-2.53Z"/>
      </g>
      <g class="cls-17">
        <path class="cls-11" d="M228.88,514.73s-1.83-3.7-2.51-3.92-4.14.24-4.53.91c-.47.82-1.5,2.83-1.5,2.83l8.54.17Z"/>
        <path class="cls-3" d="M228.88,514.73s-1.83-3.7-2.51-3.92-4.14.24-4.53.91c-.47.82-1.5,2.83-1.5,2.83l8.54.17Z"/>
        <path class="cls-1" d="M227.94,513.02s-1.5,1.06-2.41.62c-.91-.43-2.73-2.38-2.73-2.38-.4.12-.86.33-.97.52-.09.16,1.57,1.7,3.32,2.29,1.76.59,2.33-.86,3.36,0,0,0-.44-.87-.57-1.06Z"/>
      </g>
      <g class="cls-17">
        <path class="cls-11" d="M135.48,551.14s-1.83-3.7-2.51-3.92c-.68-.22-4.14.24-4.53.91-.47.82-1.5,2.83-1.5,2.83l8.54.17Z"/>
        <path class="cls-3" d="M135.48,551.14s-1.83-3.7-2.51-3.92c-.68-.22-4.14.24-4.53.91-.47.82-1.5,2.83-1.5,2.83l8.54.17Z"/>
        <path class="cls-1" d="M134.55,549.44s-1.5,1.06-2.41.62c-.91-.43-2.73-2.38-2.73-2.38-.4.12-.86.33-.97.52-.09.16,1.57,1.7,3.32,2.29,1.76.59,2.33-.86,3.36,0,0,0-.44-.87-.57-1.06Z"/>
      </g>
    </g>
    <g id="Plants">
      <g class="cls-17">
        <path class="cls-18" d="M436.94,569.05c-.2-1-.22-2.42.92-3.33,1.92-1.5,9.84,1.37,11.08-1.09s-.2-4.16,1.71-6.75,2.97,4.17,6.21,3.75c3.01-.4-.58-9.97,3.12-11.16,2.93-.94,2.11,6.27,2.42,8.67s2.51-5.7,4.86-5.04c1.92.54,1.62,4.28-1.37,7.71-3.2,3.62-1.92,5.89-1.92,5.89.72,2.08,3.03-.64,3.14,1.38.04.43,0,.86-.09,1.28l-30.09-1.3Z"/>
        <path class="cls-8" d="M436.94,569.05c-.2-1-.22-2.42.92-3.33,1.92-1.5,9.84,1.37,11.08-1.09s-.2-4.16,1.71-6.75,2.97,4.17,6.21,3.75c3.01-.4-.58-9.97,3.12-11.16,2.93-.94,2.11,6.27,2.42,8.67s2.51-5.7,4.86-5.04c1.92.54,1.62,4.28-1.37,7.71-3.2,3.62-1.92,5.89-1.92,5.89.72,2.08,3.03-.64,3.14,1.38.04.43,0,.86-.09,1.28l-30.09-1.3Z"/>
        <path class="cls-18" d="M462.41,558.7l-.71-.12c-.12-.34-.28-.65-.49-.94-.98-1.34-1.96-1-3.93-.51l-.37-.43-.19.57c-.27.06-.56.13-.87.19-1.75.46-3.46,1.07-5.11,1.8l-.26-.42-.2.59c-1.25.45-2.33.74-3.04.51-1.48-.49-1.14-1.67-1.5-3.32l.38-.47-.53-.08c0-.08-.05-.17-.08-.26-.74-2.08.54-3.23,2.47-3.84.18-.06.34-.14.51-.23l.91.14v-.77c1.87-1.56,3.52-3.37,4.9-5.37h0l.76-.26-.09-.79c.42-.66.75-1.37,1-2.12.6-2.05.29-3.15-.64-3.8l.08-.78-.98.34c-.37-.13-.74-.23-1.12-.3-.75-.15-1.18.29-1.46,1.04l-.42-.06.12,1.09c-.36,1.6-.55,3.7-1.55,4.79l-.88.1.08.69c-1.17,1.06-2.54,1.87-4.03,2.38l-.77-.58-.26.77c-.42.05-.84-.03-1.22-.22-.92-.52-1.5-2.82-1.85-5.02l.49-.94-.64-.24c-.19-1.38-.29-2.56-.34-3.02-.04-1.16.12-2.33.46-3.44l1-.11-.53-1.19c.19-.44.42-.86.7-1.24.74-1.24,1.27-2.59,1.56-4l.58-.2-.35-.86c.29-1.33.33-2.7.1-4.04l.68-.75-1.12-.29c-.12-.2-.28-.37-.47-.51-.39-.34-.93-.45-1.43-.31l-.51-.61-.11.98c-.77.83-1.31,1.84-1.59,2.93l-.72.29.45.64c-.12.45-.2.88-.27,1.28-.15.87-.42,1.71-.8,2.5-.24,0-.48-.08-.69-.21-.12-.13.08.42.29.95-.78,1.23-1.87,1.95-3.13,1.01-.74-.6-1.42-1.28-2.03-2.01l-.06-.59-.42.04c-.82-.98-1.7-1.89-2.65-2.74l.04-1.12-1.01.36h0c-.57-.4-1.19-.73-1.84-.97l-.84-.95-.42.64c-2.27-.24-3.57,1.47-2.72,3.6l-.49.49.87.26c.31.48.67.93,1.09,1.32,1.42,1.26,2.94,2.39,4.55,3.38l.11.78h1c1.69,1.12,2.97,2.74,3.67,4.64.08.23.16.46.24.68l-.44.64.86.43c1.05,2.56,2.19,4.54,1.96,6.07l-.25.76c-.05.09-.12.18-.19.27l-1.2.13.24.74c-1.98,1.43-2.83.58-4.25.16l-.47-.15-.53-1.03-.89.58c-1.52-.5-3.06-.91-4.63-1.23l-.67-.89-.38.78c-.21-.01-.43,0-.64.03-1.23.23-1.89,1.78-1,3.32l-.22.45.56.04c.34.42.75.77,1.21,1.06,1.6.88,3.32,1.5,5.11,1.85l.96,1.12,1.02-.68c1.27.23,2.52.52,3.75.89,1.52.58,3.84,2.99,5.43,5.34l-.43,1.08,1.36.43c.82,1.83,1.43,3.74,1.82,5.71l-.42.52.52,1.46.31-.04c.21,1.04.33,1.73.33,1.73l7.41-.64c-.45-.77-.84-1.57-1.17-2.4l.49-.52-.87-.64c-.27-1.04-.32-2.05.21-2.68.2-.23.41-.44.64-.64l.43.23v-.58c.89-.59,1.83-.6,4.06-1.21.79-.24,1.61-.39,2.44-.43l.64.64.3-.59c.69.09,1.37.28,2.5.4,1.85.2,2.44-1.32,2.14-2.79l.59-.48Z"/>
        <path class="cls-5" d="M433.97,551.75c.05.4-.24.77-.64.82-.4.05-.77-.24-.82-.64-.05-.4.24-.77.64-.82,0,0,0,0,0,0,.4-.05.76.24.81.64Z"/>
        <path class="cls-5" d="M425.46,548.32c.05.4-.24.77-.64.82-.4.05-.77-.24-.82-.64s.24-.77.64-.82c0,0,0,0,0,0,.4-.05.76.24.81.64Z"/>
        <path class="cls-5" d="M429.38,552.26c.05.4-.24.77-.64.82-.4.05-.77-.24-.82-.64-.05-.4.24-.77.64-.82,0,0,0,0,0,0,.4-.05.76.24.81.64Z"/>
        <path class="cls-5" d="M439.84,540.02c.05.41-.23.78-.64.83-.41.05-.78-.23-.83-.64-.05-.41.23-.78.64-.83,0,0,0,0,.01,0,.4-.05.77.24.82.64Z"/>
        <path class="cls-5" d="M445.63,551.91c.05.41-.23.78-.64.83-.41.05-.78-.23-.83-.64-.05-.41.23-.78.64-.83,0,0,0,0,.01,0,.4-.05.77.24.82.64Z"/>
        <path class="cls-5" d="M454.45,539.88c.05.4-.24.77-.64.82-.4.05-.77-.24-.82-.64-.05-.4.24-.77.64-.82,0,0,0,0,0,0,.4-.05.76.24.81.64Z"/>
        <path class="cls-5" d="M452.29,546.84c.05.41-.23.78-.64.83-.41.05-.78-.23-.83-.64-.05-.41.23-.78.64-.83,0,0,0,0,.01,0,.4-.05.77.24.82.64Z"/>
        <path class="cls-5" d="M443.42,525.22c.05.41-.23.78-.64.83s-.78-.23-.83-.64c-.05-.41.23-.78.64-.83,0,0,0,0,.01,0,.4-.05.77.24.82.64Z"/>
        <path class="cls-5" d="M440.86,529.21c.05.4-.24.77-.64.82-.4.05-.77-.24-.82-.64-.05-.4.24-.77.64-.82,0,0,0,0,0,0,.4-.04.76.24.81.64Z"/>
        <path class="cls-5" d="M440.64,533.91c.05.4-.24.77-.64.82-.4.05-.77-.24-.82-.64-.05-.4.24-.77.64-.82,0,0,0,0,0,0,.4-.05.76.24.81.64Z"/>
        <path class="cls-5" d="M437.33,535.75c.05.41-.23.78-.64.83-.41.05-.78-.23-.83-.64-.05-.41.23-.78.64-.83,0,0,0,0,.01,0,.4-.05.77.24.82.64Z"/>
        <path class="cls-5" d="M432.87,531.66c.05.41-.23.78-.64.83-.41.05-.78-.23-.83-.64-.05-.41.23-.78.64-.83,0,0,0,0,.01,0,.4-.05.77.24.82.64Z"/>
        <path class="cls-5" d="M427.64,529.94c.05.4-.24.77-.64.82-.4.05-.77-.24-.82-.64s.24-.77.64-.82c0,0,0,0,0,0,.4-.05.76.24.81.64Z"/>
        <path class="cls-5" d="M426.08,525.76c.05.41-.23.78-.64.83-.41.05-.78-.23-.83-.64-.05-.41.23-.78.64-.83,0,0,0,0,.01,0,.4-.05.77.24.82.64Z"/>
        <path class="cls-5" d="M443.13,556.47c.05.4-.24.77-.64.82-.4.05-.77-.24-.82-.64-.05-.4.24-.77.64-.82,0,0,0,0,0,0,.4-.05.76.24.81.64Z"/>
        <path class="cls-5" d="M443.09,562.88c.05.41-.23.78-.64.83-.41.05-.78-.23-.83-.64-.05-.41.23-.78.64-.83,0,0,0,0,.01,0,.4-.05.77.24.82.64Z"/>
        <path class="cls-5" d="M448.26,562.3c.05.41-.23.78-.64.83-.41.05-.78-.23-.83-.64-.05-.41.23-.78.64-.83,0,0,0,0,.01,0,.4-.05.77.24.82.64Z"/>
        <path class="cls-5" d="M455.13,559.06c.05.4-.24.77-.64.82-.4.05-.77-.24-.82-.64s.24-.77.64-.82c0,0,0,0,0,0,.4-.05.76.24.81.64Z"/>
        <path class="cls-5" d="M460.99,560.15c.05.4-.24.77-.64.82-.4.05-.77-.24-.82-.64-.05-.4.24-.77.64-.82,0,0,0,0,0,0,.4-.05.76.24.81.64Z"/>
        <path class="cls-5" d="M446.5,566.5c.05.41-.23.78-.64.83-.41.05-.78-.23-.83-.64-.05-.41.23-.78.64-.83,0,0,0,0,.01,0,.4-.05.77.24.82.64Z"/>
        <path class="cls-5" d="M438.31,544.68c.05.4-.24.77-.64.82-.4.05-.77-.24-.82-.64s.24-.77.64-.82c0,0,0,0,0,0,.4-.05.76.24.81.64Z"/>
        <path class="cls-5" d="M441.6,549.3c.05.4-.24.77-.64.82-.4.05-.77-.24-.82-.64-.05-.4.24-.77.64-.82,0,0,0,0,0,0,.4-.05.76.24.81.64Z"/>
        <path class="cls-5" d="M438.54,553.44c.05.41-.23.78-.64.83-.41.05-.78-.23-.83-.64-.05-.41.23-.78.64-.83,0,0,0,0,.01,0,.4-.05.77.24.82.64Z"/>
        <path class="cls-18" d="M468.45,571.21s-8.22-5.31-10.61-5.57-8.09,2.68-13.02,1.98-17.06,3.59-17.06,3.59h40.69Z"/>
        <path class="cls-9" d="M468.45,571.21s-8.22-5.31-10.61-5.57-8.09,2.68-13.02,1.98-17.06,3.59-17.06,3.59h40.69Z"/>
      </g>
      <g class="cls-17">
        <path class="cls-18" d="M96.1,593.64s2.15-4.07,0-7.67c-2.15-3.6-4.93-4.96-2.4-8.8,2.53-3.84-4.13-4.73-4.76-8.35s3.09-3.92,0-7.2-4.98-7.59-1.82-10.5c0,0-6.07,3.64-4.55,5.75s2.28,4.53,1.28,5.65-4.53,6.78-1.51,8.8,3.15,6.62,1.38,9.65.38,5.57,2.78,6.71,1.92,7.91,1.92,7.91l7.68-1.95Z"/>
        <path class="cls-18" d="M100.41,593.64s6.03-3.2,4.97-5.87-5.27-4.42-2.03-7.2c3.25-2.78,4.2-2.91,3.16-6.07s-4.47-4.94-1.13-6.83,1.53-6.07,1.53-6.07c0,0,0,2.78-1.53,3.16s-5.91,2.33-4.05,5.44-4.2,4.81-4.27,8.09c-.07,3.29,4.47,6.25,2.08,7.67s-3.64,5.75-2.77,7.08,4.03.6,4.03.6Z"/>
        <path class="cls-18" d="M88.39,595.56s1.39-6.96-3.4-7.12-8.85.88-8.47-2.49,0-6.09-2.66-6.35-5.2-2.1-4.82-3.38-4.55-2.88-4.55-2.88c0,0,2.91,1.67,2.79,3.69s.51,3.68,3.66,5.19,0,4.17,1.52,7.2,3.43,2.91,7.03,3.41c2.07.27,3.79,1.75,4.35,3.77l4.55-1.06Z"/>
        <path class="cls-18" d="M107.78,596.59s-5.22-5.62-6.74-5.88-5.11,2.83-8.27,2.08c-3.15-.75-10.83,3.8-10.83,3.8h25.83Z"/>
        <path class="cls-9" d="M107.78,596.59s-5.22-5.62-6.74-5.88-5.11,2.83-8.27,2.08c-3.15-.75-10.83,3.8-10.83,3.8h25.83Z"/>
      </g>
      <g class="cls-17">
        <path class="cls-18" d="M354.45,577.87c1.73-1.53.6-2.89,0-3.89s.54-.89.92-1.99-.42-2.36-1.62-1.03-2.39,2.63-2.29.49.8-5.34-.59-3.84-.95,3.09-2.27,2.49c-1.32-.6-1.02-3.32-1.72-3.33s.1,2.83-1.2,2.93c-1.29.1-2.37-.1-2.48-1.85-.12-1.75-2.41-4.15-2.91-1.59s-1.2,5.32-2.59,3.2c-1.39-2.13-2.98-2.05-2.38,0,.59,2.05-1.28,4.04-3,2.65s-4.05.3-2.13,1.39,1.63.6.93,2.49,3.69,2.39,3.69,2.39l19.64-.52Z"/>
        <path class="cls-5" d="M354.45,577.87c1.73-1.53.6-2.89,0-3.89s.54-.89.92-1.99-.42-2.36-1.62-1.03-2.39,2.63-2.29.49.8-5.34-.59-3.84-.95,3.09-2.27,2.49c-1.32-.6-1.02-3.32-1.72-3.33s.1,2.83-1.2,2.93c-1.29.1-2.37-.1-2.48-1.85-.12-1.75-2.41-4.15-2.91-1.59s-1.2,5.32-2.59,3.2c-1.39-2.13-2.98-2.05-2.38,0,.59,2.05-1.28,4.04-3,2.65s-4.05.3-2.13,1.39,1.63.6.93,2.49,3.69,2.39,3.69,2.39l19.64-.52Z"/>
        <path class="cls-18" d="M339.49,560.44s2.39-6.25,1.99-7.03-.31-2.11.04-2.08c.36.03.85-.04.75.94-.1.98-.47,2.56,0,2.53.47-.03,1.19-1.57,1.69-2.25.5-.68.29-2.19.99-2.28.36-.1.73.07.9.4-.27.56-.57,1.09-.9,1.61-.29.38-1.49,2.07-1.49,2.53s.7.44,1.49,0c.79-.44,1.5-1.61,1.92-1.38s1.09,1.23.5,1.38c-.59.15-1.69-.32-2.4.56-.44.56-.92,1.09-1.43,1.59.49.52,1.29.56,1.83.1.65-.49,1.42-.8,2.22-.89,0,0,2.22,1.69,0,1.28-1.17-.31-2.42.08-3.2,1-.73.6-1.41,1.27-2.03,1.98-.3.38-.57.78-.8,1.2l-2.09-1.16Z"/>
        <path class="cls-18" d="M331.82,575.75s-3.69-7.03,0-10.34c3.69-3.3,5.68-4.54,5.27-6.71-.4-2.17-1.39-4.44,3.39-2.71,4.79,1.73,6.39,4.9,6.39,4.9,0,0-2.19,1.69-2.19,2.65s-1.8,5.5-2.99,7.03c-1.2,1.53,1.82,5.54.31,6.39-1.51.85-10.19-1.22-10.19-1.22Z"/>
        <path class="cls-10" d="M331.82,575.75s-3.69-7.03,0-10.34c3.69-3.3,5.68-4.54,5.27-6.71-.4-2.17-1.39-4.44,3.39-2.71,4.79,1.73,6.39,4.9,6.39,4.9,0,0-2.19,1.69-2.19,2.65s-1.8,5.5-2.99,7.03c-1.2,1.53,1.82,5.54.31,6.39-1.51.85-10.19-1.22-10.19-1.22Z"/>
        <path class="cls-18" d="M319.54,557.07s-2.4-6.65-1.99-7.47c.4-.81.31-2.24-.04-2.22-.35.03-.86-.04-.75,1s.47,2.73,0,2.68-1.18-1.66-1.68-2.4-.3-2.33-1-2.43c-.36-.09-.74.08-.9.42.27.59.57,1.17.9,1.72.3.4,1.5,2.2,1.5,2.68s-.7.47-1.5,0-1.5-1.72-1.92-1.47-1.09,1.28-.5,1.47,1.7-.34,2.4.6c.44.59.92,1.15,1.43,1.68-.46.53-1.27.59-1.8.13,0,0-.02-.01-.02-.02-.64-.52-1.41-.85-2.22-.96,0,0-2.22,1.81,0,1.38,1.18-.32,2.44.1,3.2,1.07.73.65,1.41,1.35,2.03,2.12.3.4.57.83.8,1.28l2.1-1.28Z"/>
        <path class="cls-18" d="M324.53,577.97s-4.58-1.74-4.98-5.41c-.4-3.68-1.16-8.6-4.57-10.71-3.41-2.1-5.4-3.03-2.81-5.22,2.6-2.19,9.97-4.92,11.56-3.34,1.6,1.58-1.2,1.99.79,4.33,1.99,2.34,2.72,7.38,6.25,10.16s2.93,10.18,2.93,10.18h-9.17Z"/>
        <path class="cls-8" d="M324.53,577.97s-4.58-1.74-4.98-5.41c-.4-3.68-1.16-8.6-4.57-10.71-3.41-2.1-5.4-3.03-2.81-5.22,2.6-2.19,9.97-4.92,11.56-3.34,1.6,1.58-1.2,1.99.79,4.33,1.99,2.34,2.72,7.38,6.25,10.16s2.93,10.18,2.93,10.18h-9.17Z"/>
        <path class="cls-18" d="M294.44,575.64s-.3-2.26,1.49-2.16,3.09-.7,2.4-2.09-1-4.19,1-3.79.8,2.52,1.28,2.95,2.15,1.46,2.56,0-.53-5.27,1.66-4.66,1.1,2.4,1.2,3,3.03,2.79,4.05.89c1.02-1.89,1.33-2.56,2.03-2.79s.1-1.09,0-2.19,1-1.05,1.5,0,.1,1.6,1.59,1.69,2.1-.89,2.1-1.39-.6-2.33,1-1.86,2.09.36,1.09,1.96-1.19,2.19.86,2.79,3.33,1.62,2.83,2.56,1.6,2.23,2.2,1.04.2-2.77,1.28-2.19c1.08.59,1.92,1.39.8,2.08s-1.99,1.8-1.1,2.19-.72.17,1.62-.4,3.84.73,1.45,1.36-.68,1.59.64,2.16.99,1.16.99,1.16h-34.12l-2.39-2.33Z"/>
        <path class="cls-18" d="M364.99,579.01h-109.95c3.7-2.05,7.84-3.16,12.07-3.25,6.87-.08,8.27.88,11.87.88s9.03-4.59,12.64-4.55,4.25,3.66,10.87,3.66,9.54,1.92,17.82,1.92,11-2.9,15.08-2.95,6.25,2.47,11.41,2.47,6.53-.61,11.99-.56c5.46.05,6.21,2.37,6.21,2.37Z"/>
        <path class="cls-9" d="M364.99,579.01h-109.95c3.7-2.05,7.84-3.16,12.07-3.25,6.87-.08,8.27.88,11.87.88s9.03-4.59,12.64-4.55,4.25,3.66,10.87,3.66,9.54,1.92,17.82,1.92,11-2.9,15.08-2.95,6.25,2.47,11.41,2.47,6.53-.61,11.99-.56c5.46.05,6.21,2.37,6.21,2.37Z"/>
      </g>
    </g>
    <g id="Plastics_2">
      <g class="cls-17">
        <path class="cls-18" d="M44.44,434.77c-.82.83-3.31,5.62-1.35,6.53,1.96.9,6.67,1.08,6.67,1.08-.16-.12-1.42-3.55-1.7-3.81-2.84-2.59-3.63-3.81-3.63-3.81Z"/>
        <path class="cls-11" d="M365.8,331.53c-.31.03-.94,2.11-.94,2.11,0,0,1.77,1.42,2.29,1.23.52-.19,1.98-.5,1.77-.82-.21-.31-.62-2.53-.62-2.53h-2.5Z"/>
        <path class="cls-11" d="M315.3,489.78c-.31.03-.94,2.11-.94,2.11,0,0,1.77,1.42,2.29,1.23.52-.19,1.98-.5,1.77-.82-.21-.31-.62-2.53-.62-2.53h-2.5Z"/>
        <path class="cls-11" d="M502.9,394.05c-.31.03-.94,2.11-.94,2.11,0,0,1.77,1.42,2.29,1.23.52-.19,1.98-.5,1.77-.82-.21-.31-.62-2.53-.62-2.53h-2.5Z"/>
        <path class="cls-11" d="M27.8,274.06c-.31.03-.94,2.11-.94,2.11,0,0,1.77,1.42,2.29,1.23.52-.19,1.98-.5,1.77-.82-.21-.31-.62-2.53-.62-2.53h-2.5Z"/>
        <path class="cls-11" d="M173.71,441.93c-.47.04-1.4,3.15-1.4,3.15,0,0,2.65,2.12,3.42,1.84.78-.29,2.95-.75,2.64-1.22-.31-.47-.93-3.77-.93-3.77h-3.73Z"/>
        <path class="cls-11" d="M188.8,290.3c-.47.04-1.41,3.15-1.41,3.15,0,0,2.65,2.12,3.42,1.84.78-.29,2.95-.75,2.64-1.22s-.93-3.77-.93-3.77h-3.73Z"/>
        <path class="cls-11" d="M153.61,198.3c-.47.04-1.41,3.15-1.41,3.15,0,0,2.65,2.12,3.42,1.84.78-.29,2.95-.75,2.64-1.22-.31-.47-.93-3.77-.93-3.77h-3.73Z"/>
        <path class="cls-18" d="M389.96,159.64c-.31.03-.94,2.11-.94,2.11,0,0,1.77,1.42,2.29,1.23.52-.19,1.98-.5,1.77-.82-.21-.31-.62-2.53-.62-2.53h-2.5Z"/>
        <path class="cls-18" d="M507.59,186.57c-.31.03-.94,2.11-.94,2.11,0,0,1.77,1.42,2.29,1.23.52-.19,1.98-.5,1.77-.82-.21-.31-.62-2.53-.62-2.53h-2.5Z"/>
        <path class="cls-18" d="M65.39,146.6c-.31.03-.94,2.11-.94,2.11,0,0,1.77,1.42,2.29,1.23.52-.19,1.98-.5,1.77-.82-.21-.31-.62-2.53-.62-2.53h-2.5Z"/>
      </g>
    </g>
    <g id="Plastics_1">
      <g class="cls-17">
        <g>
          <path class="cls-18" d="M90.78,404.25c-1.27-4.09-17.08-29.52-17.92-31.24-.85-1.72-1.81-1.07-2.43-2.13-.62-1.06-.24-1.36-.24-1.36-2.24-7.07-12.19-5.98-13.33-6.58-1.14-.6-2.58-3.47-2.58-3.47,0,0-4.76,2.93-5.26,3.44-1.08.69-1.99,1.28-1.99,1.28,0,0,1.98,2.53,2.03,3.81.05,1.29-5.17,9.83.26,14.87,0,0,.43-.21,1.13.8.69,1.01-.3,1.61.89,3.11,1.19,1.5,16.35,27.49,19.55,30.34,2.56,2.28,10.92-2.96,14.16-5.14,3.63-2.41,6.53-5.17,5.74-7.74Z"/>
          <path class="cls-3" d="M90.78,404.25c-1.27-4.09-17.08-29.52-17.92-31.24-.85-1.72-1.81-1.07-2.43-2.13-.62-1.06-.24-1.36-.24-1.36-2.24-7.07-12.19-5.98-13.33-6.58-1.14-.6-2.58-3.47-2.58-3.47,0,0-4.76,2.93-5.26,3.44-1.08.69-1.99,1.28-1.99,1.28,0,0,1.98,2.53,2.03,3.81.05,1.29-5.17,9.83.26,14.87,0,0,.43-.21,1.13.8.69,1.01-.3,1.61.89,3.11,1.19,1.5,16.35,27.49,19.55,30.34,2.56,2.28,10.92-2.96,14.16-5.14,3.63-2.41,6.53-5.17,5.74-7.74Z"/>
          <path class="cls-18" d="M56.38,360.37l-9.6,5.92-2.92-4.73c2.74-2.65,5.94-4.62,9.6-5.92l2.92,4.73Z"/>
          <g class="cls-15">
            <path class="cls-2" d="M49.97,382.81c8.18-1.28,15.6-5.91,20.39-12.66.28-.39-.37-.77-.65-.38-4.68,6.59-11.96,11.07-19.94,12.32-.48.07-.27.8.2.72h0Z"/>
          </g>
          <g class="cls-15">
            <path class="cls-2" d="M51.01,384.88c8.18-1.28,15.6-5.91,20.39-12.66.28-.39-.37-.77-.65-.38-4.68,6.59-11.96,11.07-19.94,12.32-.48.07-.27.8.2.72h0Z"/>
          </g>
          <g class="cls-15">
            <path class="cls-2" d="M49.86,367.73c2.74-.2,5.28-1.81,6.6-4.23.23-.42-.42-.8-.65-.38-1.18,2.18-3.47,3.68-5.95,3.86-.48.03-.48.78,0,.75h0Z"/>
          </g>
          <g class="cls-15">
            <path class="cls-2" d="M71.51,416.18c3.55-7.16,11.14-11.9,19.14-11.91.48,0,.48-.75,0-.75-8.24,0-16.13,4.89-19.79,12.28-.21.43.43.81.65.38h0Z"/>
          </g>
          <g class="cls-15">
            <path class="cls-11" d="M44.25,361.93c1.49-.29,2.94-.69,4.29-1.39,1.98-1.02,3.62-2.58,5-4.31.3-.37-.23-.91-.53-.53-1.35,1.68-2.92,3.19-4.85,4.19-1.29.67-2.69,1.03-4.11,1.31-.47.09-.27.82.2.72h0Z"/>
          </g>
        </g>
        <g class="cls-12">
          <path class="cls-2" d="M57.23,363.95c-.31.94-.93,1.76-1.73,2.33,3.24,1.82,6.57,4.8,8.95,7.65,1.51-1.46,3.02-2.92,4.52-4.39-2.86-3.44-7.27-5.54-11.74-5.59"/>
        </g>
        <path class="cls-6" d="M71.97,373.94c-.17.45-3.66,4.12-3.5,4.7s7.66,15.64,9.49,15.32c1.83-.33,4.75-2.41,4.33-3.16-.42-.75-10.33-16.86-10.33-16.86Z"/>
        <path class="cls-18" d="M66.93,411.77c1.69.84,10.84-5,10.65-7.88,0-.08-11.44-17.03-11.44-17.03-3.63,2.76-10.34,5.8-11.44,5.33,0,0,11.23,18.26,12.23,19.58Z"/>
      </g>
      <g class="cls-17">
        <path class="cls-18" d="M452.72,314.8c-1.29.87-1.76,2.62-1.51,4.15.26,1.53,1.12,2.9,2.04,4.14,1.21,1.63,2.71,3.23,4.68,3.68,1.24.29,2.57.09,3.79.45,1.47.43,2.59,1.58,3.64,2.69,2.17,2.3,10.09,11.14,13.68,15.09.68.75,1.85.78,2.57.08h0c.72-.71.71-1.88-.02-2.57-3.89-3.67-12.56-11.76-14.82-13.97-1.09-1.07-2.22-2.22-2.62-3.69-.33-1.23-.11-2.55-.37-3.8-.42-1.99-1.99-3.51-3.59-4.75-1.23-.95-2.57-1.84-4.1-2.13-1.53-.29-3.28.15-4.18,1.42"/>
      </g>
      <g class="cls-17">
        <path class="cls-18" d="M52.71,188.99c-.21-1.54-1.56-2.74-3.05-3.19-1.49-.45-3.09-.28-4.62,0-2,.37-4.09,1-5.37,2.57-.81.99-1.22,2.26-2.08,3.2-1.03,1.13-2.56,1.63-4.02,2.07-3.02.93-14.45,4.11-19.59,5.58-.97.28-1.52,1.31-1.21,2.27h0c.31.96,1.37,1.47,2.32,1.12,5.01-1.86,16.1-6.06,19.09-7.1,1.44-.5,2.97-1.01,4.47-.71,1.25.25,2.34,1.03,3.57,1.35,1.97.5,4.03-.23,5.85-1.11,1.4-.68,2.79-1.49,3.72-2.74s1.31-3.01.57-4.38"/>
      </g>
      <g class="cls-17">
        <g>
          <polygon class="cls-11" points="434.95 446.54 436.64 450.44 444.43 446.91 442.06 442.79 434.95 446.54"/>
          <polygon class="cls-6" points="434.95 446.54 436.64 450.44 444.43 446.91 442.06 442.79 434.95 446.54"/>
          <path class="cls-11" d="M458.06,502.48l19.08-44.28c.76-1.93-.11-4.11-1.99-4.98l-21.47-10.79c-1.1-.51-2.37-.48-3.44.07-3.1,1.6-9.72,5.02-14.18,7.33-1.29.67-2.4,1.24-3.19,1.65-.82.42-1.47,1.13-1.82,1.98l-12.89,31.21c-1.16,2.81.1,6.04,2.87,7.32l29.38,13.56c2.96,1.37,6.46-.04,7.66-3.07ZM468.46,459.22l-15.75-7.2c-1.1-.5-1.59-1.8-1.08-2.9l.7-1.53c.5-1.1,1.8-1.59,2.9-1.08l15.75,7.2c1.1.5,1.59,1.8,1.08,2.9l-.7,1.53c-.5,1.1-1.8,1.59-2.9,1.08Z"/>
          <path class="cls-6" d="M458.06,502.48l19.08-44.28c.76-1.93-.11-4.11-1.99-4.98l-21.47-10.79c-1.1-.51-2.37-.48-3.44.07-3.1,1.6-9.72,5.02-14.18,7.33-1.29.67-2.4,1.24-3.19,1.65-.82.42-1.47,1.13-1.82,1.98l-12.89,31.21c-1.16,2.81.1,6.04,2.87,7.32l29.38,13.56c2.96,1.37,6.46-.04,7.66-3.07ZM468.46,459.22l-15.75-7.2c-1.1-.5-1.59-1.8-1.08-2.9l.7-1.53c.5-1.1,1.8-1.59,2.9-1.08l15.75,7.2c1.1.5,1.59,1.8,1.08,2.9l-.7,1.53c-.5,1.1-1.8,1.59-2.9,1.08Z"/>
          <rect class="cls-11" x="436.02" y="437.93" width="4.58" height="11.88" transform="translate(629.67 -149.87) rotate(62.5)"/>
        </g>
        <path class="cls-7" d="M467.18,470.08c-.06-.16-.22-.21-.38-.17-1.13.28-2.25.56-3.38.84-.25-.63-.74-1.17-1.4-1.47l-21.91-9.83c-.75-.34-1.57-.3-2.26.02-.46-.87-.91-1.74-1.37-2.61-.07-.14-.22-.23-.38-.17-.13.05-.24.24-.17.38.47.9.95,1.8,1.42,2.7-.35.26-.63.62-.82,1.04l-9.83,21.91c-.35.77-.3,1.62.05,2.33-1.52.39-3.04.79-4.56,1.18-.15.04-.22.24-.17.38.06.16.23.21.38.17,1.56-.4,3.13-.81,4.69-1.21.26.31.58.56.97.74l21.91,9.83c.4.18.83.25,1.24.23,0,.07.04.15.1.2.94.9,1.51,2.14,1.61,3.44.03.38.61.31.58-.06-.1-1.38-.71-2.69-1.67-3.68.74-.21,1.38-.74,1.72-1.49l9.83-21.91c.23-.51.29-1.04.2-1.55,1.14-.29,2.29-.57,3.43-.86.15-.04.22-.24.17-.38Z"/>
      </g>
      <g class="cls-17">
        <g class="cls-12">
          <path class="cls-18" d="M118.14,61.85c-1.06-1.02-2.48-1.57-3.89-1.96-3.12-.84-6.42-.95-9.6-.35-2.64.5-5.4,2.29-7.87.36-1.12-.87-1.85-2.14-2.52-3.39-.67-1.25-1.32-2.54-2.32-3.54-1.62-1.62-3.93-2.26-6.07-3.06-2.14-.8-4.38-1.99-5.25-4.1-1.2-2.89.49-6.68-1.51-9.08-.74-.88-1.93-1.46-2.27-2.56-.34-1.09.3-2.24,1.02-3.12,2.31-2.82,5.67-4.57,9.03-5.97,3.36-1.41,6.87-2.57,9.94-4.53.86-.55,1.69-1.18,2.22-2.05.53-.87.69-2.02.17-2.9-.49-.83-1.5-1.25-2.47-1.29-.97-.04-1.92.25-2.84.53-3.42,1.04-6.95,1.91-10.32,3.12-1.25.45-1.71,1.36-2.69,2.21-1.14.98-2.43,1.79-3.82,2.37-4.66,1.95-10.12.83-14.44,3.74-2.53,1.71-5.14,6.75-7.41,8.79-5.66,5.12-15.79,2.68-20.9,8.35-2.77,3.07-3.46,8.02-7.11,9.96-2.34,1.24-5.16.81-7.79,1.08-4.38.45-8.38,3.13-10.71,6.83-1.09,1.73-2.21,4.05-1.88,6.1.47,2.88,1.56,5.62,2.62,8.32.74,1.88,1.54,3.84,3.11,5.11,2.59,2.1,6.21,1.66,9.28,2.34,3.31.74,4.6,3.93,5.3,6.97.6,2.64,1.03,5.5,2.85,7.51,1.49,1.64,3.67,2.42,5.63,3.44,1.96,1.02,3.94,2.56,4.29,4.74.17,1.01-.04,2.09.32,3.05.52,1.41,2.17,2.18,3.67,2.05s2.85-.99,3.96-2c1.11-1.02,2.04-2.21,3.15-3.24,2.41-2.24,5.56-3.64,7.68-6.16,2.39-2.84,2.66-6.66,5.35-9.27,2.26-2.19,5.55-3.23,8.62-3.6,3.67-.44,7.4-.5,11-1.35s7.17-2.63,9.2-5.72c1.21-1.84,1.8-4.04,3.08-5.84,1.73-2.43,4.58-3.89,7.49-4.53,2.92-.64,5.94-.56,8.92-.46,1.37.04,2.76.09,4.07-.31,1.31-.39,2.54-1.31,2.95-2.62.43-1.4-.19-2.97-1.25-3.99ZM71.93,32.19c-.73.04-3.24-.19-4.01-.37s-1.56-.79-1.48-1.57c.07-.63.66-1.07,1.24-1.34,2.88-1.38,6.44-.9,9.21-2.5,1.42-.83,2.5-2.13,3.75-3.19,1.97-1.66,4.58-2.26,6.79-3.58,3.45-2.05,7.66-3.19,7.84-2.22-.31,1.4-1.72,2.28-3.1,2.68-1.38.4-2.86.5-4.15,1.14-1.04.52-1.88,1.35-2.79,2.06-3.53,2.74-8.23,3.67-11.64,6.54-.75.63-1.45,1.4-1.65,2.35ZM115.43,65.44c-2.44.19-4.87-.32-7.3-.58-2.43-.27-5-.27-7.19.83-1.73.87-3.29,2.44-5.22,2.34l-.06-4.32c2.33.16,4.65-.29,6.94-.75s4.6-.95,6.93-.88c2.33.07,4.73.75,6.43,2.36.14.13.28.29.28.48,0,.36-.46.51-.82.54Z"/>
        </g>
        <g class="cls-12">
          <path d="M61.1,40.17c3.11.68,6.36,1.38,9,3.26,1.24.88,2.34,2.01,3.04,3.36.78,1.5.92,3.18,1.15,4.83.36,2.62,1.33,4.82,3.2,6.72s4.21,3.28,6.52,4.6c.42.24.8-.41.38-.65-2.44-1.39-4.93-2.86-6.82-4.97-1.01-1.13-1.79-2.45-2.18-3.92-.42-1.56-.44-3.2-.8-4.78-1.38-6.14-7.93-8-13.29-9.18-.47-.1-.67.62-.2.72h0Z"/>
        </g>
        <g class="cls-12">
          <path d="M37.37,62.16c11.81,9.68,27.51,14.01,42.61,11.78.48-.07.27-.79-.2-.72-14.81,2.19-30.3-2.09-41.88-11.58-.37-.3-.9.22-.53.53h0Z"/>
        </g>
        <g class="cls-12">
          <path d="M46.48,77.28c2.84,1.38,5.4,3.27,7.56,5.58.33.35.86-.18.53-.53-2.2-2.35-4.82-4.29-7.71-5.7-.43-.21-.81.44-.38.65h0Z"/>
        </g>
        <g class="cls-12">
          <path d="M42.18,94.91c-6.46-5.98-10.8-13.97-12.3-22.65-.08-.47-.81-.27-.72.2,1.52,8.79,5.95,16.92,12.49,22.98.35.33.89-.2.53-.53h0Z"/>
        </g>
      </g>
      <g class="cls-17">
        <g class="cls-12">
          <path class="cls-18" d="M410.95,192.37c.04,1.17.55,2.27,1.16,3.28,1.33,2.21,3.17,4.1,5.33,5.51,1.8,1.17,4.38,1.67,4.73,4.15.16,1.12-.12,2.25-.42,3.34s-.65,2.19-.63,3.32c.04,1.83,1.01,3.48,1.8,5.12.79,1.65,1.42,3.56.76,5.26-.91,2.32-3.98,3.57-4.15,6.06-.06.92.3,1.91-.11,2.73-.41.82-1.41,1.12-2.31,1.23-2.89.34-5.79-.51-8.5-1.56-2.71-1.05-5.37-2.32-8.23-2.89-.8-.16-1.63-.26-2.41-.05-.78.21-1.52.78-1.7,1.57-.18.75.17,1.55.71,2.11s1.24.92,1.93,1.27c2.54,1.3,5.06,2.74,7.66,3.91.97.43,1.74.16,2.77.22,1.2.07,2.39.32,3.51.75,3.76,1.46,6.29,5.12,10.38,5.83,2.4.42,6.69-1.04,9.13-.96,6.09.18,10.57,7.19,16.65,6.75,3.29-.24,6.43-2.7,9.6-1.8,2.03.58,3.42,2.39,5.09,3.69,2.77,2.16,6.56,2.83,9.95,1.99,1.58-.39,3.51-1.11,4.46-2.47,1.32-1.91,2.21-4.1,3.09-6.24.61-1.49,1.24-3.06,1.04-4.66-.33-2.64-2.66-4.39-4.05-6.49-1.5-2.25-.47-4.81.81-6.94,1.11-1.86,2.45-3.74,2.51-5.9.05-1.77-.77-3.42-1.34-5.1-.57-1.67-.85-3.65.15-5.11.46-.68,1.18-1.18,1.5-1.93.48-1.1-.04-2.46-.98-3.21-.94-.76-2.18-1.01-3.39-1.04-1.2-.03-2.4.14-3.6.13-2.63-.04-5.22-.98-7.83-.7-2.95.31-5.21,2.36-8.21,2.37-2.51.01-4.98-1.21-6.95-2.69-2.36-1.77-4.54-3.81-7.08-5.31s-5.58-2.45-8.46-1.79c-1.71.39-3.27,1.33-5,1.66-2.34.44-4.78-.3-6.82-1.54-2.03-1.24-3.72-2.96-5.39-4.67-.76-.78-1.54-1.58-2.51-2.08-.97-.5-2.19-.65-3.14-.12-1.03.57-1.54,1.82-1.49,2.99ZM421.14,235.01c.44.38,1.76,1.9,2.1,2.43.35.53.46,1.32-.02,1.72-.39.33-.97.25-1.46.09-2.42-.8-4.2-3.05-6.68-3.65-1.28-.31-2.61-.16-3.92-.24-2.05-.13-3.89-1.23-5.89-1.69-3.12-.73-6.17-2.4-5.74-3.06.95-.64,2.25-.36,3.27.17s1.92,1.3,3.02,1.64c.88.28,1.83.26,2.75.36,3.54.38,6.76,2.44,10.32,2.68.78.05,1.61,0,2.25-.44ZM414.5,191.8c1.51,1.24,2.63,2.88,3.88,4.38,1.25,1.5,2.73,2.93,4.6,3.5,1.48.46,3.24.41,4.3,1.54l-2.36,2.52c-1.25-1.38-2.84-2.41-4.41-3.41s-3.17-2-4.48-3.33-2.31-3.05-2.4-4.91c0-.15,0-.32.1-.44.2-.21.55-.04.77.14Z"/>
        </g>
        <g class="cls-12">
          <path d="M431.86,236.36c-1.35-2.02-2.78-4.12-3.31-6.53-.62-2.78.28-4.87,1.9-7.07,1.22-1.67,1.98-3.38,2.03-5.47.06-2.28-.57-4.52-1.2-6.69-.14-.46-.86-.27-.72.2.71,2.41,1.44,4.95,1.1,7.48s-2.28,4.14-3.37,6.41c-2.01,4.22.62,8.59,2.93,12.04.27.4.92.02.65-.38h0Z"/>
        </g>
        <g class="cls-12">
          <path d="M457.69,236.88c-1.46-12.14-8.09-23.32-18.04-30.41-.39-.28-.77.37-.38.65,9.72,6.93,16.25,17.92,17.67,29.77.06.47.81.48.75,0h0Z"/>
        </g>
        <g class="cls-12">
          <path d="M460.8,223.11c-.87-2.36-1.3-4.85-1.26-7.37,0-.48-.74-.48-.75,0-.03,2.58.4,5.15,1.29,7.57.17.45.89.26.72-.2h0Z"/>
        </g>
        <g class="cls-12">
          <path d="M472.88,215.35c.4,7.01-1.51,13.98-5.43,19.8-.27.4.38.78.65.38,3.99-5.92,5.94-13.05,5.53-20.18-.03-.48-.78-.48-.75,0h0Z"/>
        </g>
      </g>
      <g class="cls-17">
        <rect class="cls-11" x="125.08" y="493.48" width="6" height="11.16" rx="1.14" ry="1.14" transform="translate(-373.27 380.28) rotate(-62.28)"/>
        <path class="cls-18" d="M98.31,511.66c-1.59,2.39-2.13,10.1-2.13,10.1-2.68-1.31-13.85-1.01-11.56,8.5.6,2.51,25.11,21.39,29.36,19.4,4.25-1.99,14.35-9.83,15.54-12.22,1.2-2.39,1.46-7.17,1.46-7.17,0,0,4.52.66,5.18-1.47.66-2.13-2.26-7.97-2.26-7.97,0,0,4.52-.4,5.31-1.46.8-1.06,0-3.32,0-3.32l-7.44-11.96s-10.63-5.98-10.76-5.85-3.45-1.73-4.78.53c-1.33,2.26.8,7.04.8,7.04,0,0-7.57-3.72-9.96-2.13-2.39,1.59-.27,6.24-.27,6.24,0,0-6.1-1.88-8.5,1.73Z"/>
        <path class="cls-3" d="M98.31,511.66c-1.59,2.39-2.13,10.1-2.13,10.1-2.68-1.31-13.85-1.01-11.56,8.5.6,2.51,25.11,21.39,29.36,19.4,4.25-1.99,14.35-9.83,15.54-12.22,1.2-2.39,1.46-7.17,1.46-7.17,0,0,4.52.66,5.18-1.47.66-2.13-2.26-7.97-2.26-7.97,0,0,4.52-.4,5.31-1.46.8-1.06,0-3.32,0-3.32l-7.44-11.96s-10.63-5.98-10.76-5.85-3.45-1.73-4.78.53c-1.33,2.26.8,7.04.8,7.04,0,0-7.57-3.72-9.96-2.13-2.39,1.59-.27,6.24-.27,6.24,0,0-6.1-1.88-8.5,1.73Z"/>
        <path class="cls-12" d="M113.54,504.35c.31.37,1.58,9.31,5.33,11.47s13.73,1.12,13.49,1.12-10.06.32-11.65-2.24c-1.6-2.55-3.67-8.89-3.67-8.89l-3.5-1.46Z"/>
        <path class="cls-12" d="M92.96,521.19c-.32.66-3.07,3.2-.18,8.79.72,1.4,10.72,9.29,14.28,9.14.74-.03-10.47-7.56-10.47-10.32s-.41-7.05-.41-7.05c-.93-.35-2.02-.52-3.22-.56Z"/>
        <g class="cls-12">
          <path d="M107.86,513.78c.77,2.17.97,4.5,1.84,6.64.79,1.93,2.19,3.4,4.03,4.36,4.32,2.27,9.48,1.52,13.86,3.61.43.21.81-.44.38-.65-4.09-1.96-8.81-1.45-12.96-3.19-2.15-.9-3.84-2.41-4.69-4.62-.79-2.05-.99-4.28-1.73-6.35-.16-.45-.89-.26-.72.2h0Z"/>
        </g>
        <g class="cls-12">
          <path d="M130.47,531.1c-3.01-.3-6.02-.6-9.03-.89-.48-.05-.48.7,0,.75,3.01.3,6.02.6,9.03.89.48.05.48-.7,0-.75h0Z"/>
        </g>
        <g class="cls-12">
          <path d="M133.71,520.62c-2.9-.17-5.79-.33-8.69-.5-.48-.03-.48.72,0,.75,2.9.17,5.79.33,8.69.5.48.03.48-.72,0-.75h0Z"/>
        </g>
      </g>
      <g class="cls-17">
        <path class="cls-18" d="M407.64,404.97s-1.33-3.42,1.74-4.99,4.65.67,4.65.67l3.57,4.79c.17,0,4.57,1.35,6.73-.56,2.16-1.91,5.85-13.12,13.31-11.8l1.43-1.59,3.23,1.69c-.25.08-.71,2.35-.71,2.35,0,0,1.45,1.88,1.19,5.17-.2,2.43-4.49,12.31-6.57,15.47-2.08,3.16-6.89,5.15-12.79,4.4-5.9-.75-6.73-3.49-8.8-6.39-2.08-2.91-6.98-9.22-6.98-9.22Z"/>
        <path class="cls-12" d="M419.07,405.75s7.26,7.59,7.14,9.6c-.12,2.01-3.16,2.75-3.16,2.75,0,0,.9-.17,1.45-1.42.42-.95.18-1.78-.31-2.6-.48-.83-6.5-8.52-6.5-8.52l1.37.2Z"/>
        <path class="cls-11" d="M417.49,405.71c1.01,1.38,2.02,2.75,3.03,4.13s2.03,2.64,2.93,4.02c.43.66.78,1.42.64,2.23s-.78,1.55-1.64,1.56c-.75,0-1.47-.64-1.29-1.42s1.23-1.06,1.67-.31c.25.41.9.04.65-.38-.65-1.09-2.26-1.08-2.87.04-.67,1.22.22,2.62,1.53,2.8,1.51.21,2.68-1.17,2.72-2.59.04-1.78-1.5-3.31-2.48-4.65-1.42-1.93-2.84-3.86-4.25-5.8-.28-.39-.93-.01-.65.38h0Z"/>
        <path class="cls-11" d="M420.74,419.1c-1.35-.68-2.01-2.27-1.44-3.69s2.29-2.15,3.77-1.59c.45.17.65-.55.2-.72-1.83-.69-3.91.22-4.65,2.03s.07,3.78,1.75,4.62c.43.22.81-.43.38-.65h0Z"/>
        <path class="cls-11" d="M436.53,391.77c.32.06,6.46,3.13,6.62,3.13s2.01-6.09,1.85-6.03-4.5-2.06-4.5-2.06l-3.97,4.97Z"/>
        <path class="cls-3" d="M436.53,391.77c.32.06,6.46,3.13,6.62,3.13s2.01-6.09,1.85-6.03-4.5-2.06-4.5-2.06l-3.97,4.97Z"/>
        <path class="cls-11" d="M440.8,387.14c-.91,1.43-1.83,2.87-2.74,4.3l-.38.6c-.26.41.39.78.65.38.91-1.43,1.83-2.87,2.74-4.3l.38-.6c.26-.41-.39-.78-.65-.38h0Z"/>
        <path class="cls-11" d="M441.81,387.64c-.81,1.48-1.63,2.95-2.44,4.43l-.35.63c-.23.42.41.8.65.38.81-1.48,1.63-2.95,2.44-4.43l.35-.63c.23-.42-.41-.8-.65-.38h0Z"/>
        <path class="cls-11" d="M442.77,388.08c-.74,1.52-1.48,3.04-2.21,4.56l-.32.65c-.21.43.44.81.65.38.74-1.52,1.48-3.04,2.21-4.56l.32-.65c.21-.43-.44-.81-.65-.38h0Z"/>
        <path class="cls-11" d="M443.72,388.63c-.63,1.55-1.26,3.1-1.89,4.65l-.27.67c-.08.19.08.41.26.46.21.06.39-.08.46-.26.63-1.55,1.26-3.1,1.89-4.65l.27-.67c.08-.19-.08-.41-.26-.46-.21-.06-.39.08-.46.26h0Z"/>
        <path class="cls-12" d="M437.71,393.02c.08,0,3.91,2.39,3.91,2.39,0,0,.3-1.11.26-1.07-.04.04-3.73-1.85-3.72-1.82.01.03-.58.51-.46.51Z"/>
        <g class="cls-12">
          <path d="M424.72,407.28c1.93,2.27,4.08,4.36,6.41,6.22.37.3.91-.23.53-.53-2.33-1.87-4.47-3.95-6.41-6.22-.31-.37-.84.16-.53.53h0Z"/>
        </g>
        <g class="cls-12">
          <path d="M426.54,407.25c1.77.86,3.45,1.91,4.98,3.14.16.13.37.15.53,0,.13-.13.16-.4,0-.53-1.58-1.28-3.3-2.37-5.13-3.26-.43-.21-.81.44-.38.65h0Z"/>
        </g>
      </g>
      <g class="cls-17">
        <g>
          <path class="cls-18" d="M205.03,526.64c-6.97,1.86-15.74,7.26-15.74,7.26h-1.81s.01,2.83.01,2.83v2.82s1.82,0,1.82,0c0,0,8.81,5.32,15.8,7.12,6.99,1.8,21.72.05,22.23-.1l8.62-1.4c1.73-.28,3-1.78,3-3.54l-.02-5.13-.02-5.13c0-1.76-1.29-3.24-3.03-3.51l-8.63-1.32c-.52-.14-15.26-1.77-22.23.1ZM208.64,527.4c.68.12.77,3.74.28,4.42-.49.68-11.31,1.22-11.31,1.22-.99.09-1.61-.83-1.3-1.26.31-.43,11.66-4.5,12.34-4.38Z"/>
          <polygon class="cls-12" points="188.33 539.54 188.86 539.54 189.29 533.89 188.24 533.89 188.33 539.54"/>
          <rect class="cls-11" x="182.9" y="535.06" width="7.71" height="3.22" rx="1.47" ry="1.47" transform="translate(-351.85 717.8) rotate(-89.4)"/>
        </g>
        <path class="cls-3" d="M197.25,543.71s13.02.27,17.9-3.55c4.88-3.81,5.01-14.25,5.01-14.25l5.91.47s.27,6.21-6.04,11.6c-6.31,5.39-16.06,8.36-16.06,8.36l-6.72-2.63"/>
      </g>
      <path class="cls-16" d="M437.36,32.06c-2.23,1-2.23,5.88-.06,11.05-2.55-2.93-5.32-4.4-6.95-3.43-2.17,1.29-1.49,6.43,1.51,11.47,2.7,4.53,6.35,7.44,8.64,7.05-1.35,1.94.33,6.52,4,10.62,3.41,3.81,7.42,5.95,9.64,5.33-.09,2.33,3.4,5.52,8.35,7.47,5.46,2.16,10.64,2,11.57-.35.63-1.61-.89-3.83-3.66-5.76,4.28,1.08,7.88.63,8.64-1.3.93-2.35-2.75-6-8.21-8.16-4.22-1.67-8.28-1.95-10.33-.91.39-2.27-1.29-6.08-4.41-9.56-3.04-3.39-6.54-5.46-8.84-5.44.94-2.1.47-6.12-1.38-10.25-2.4-5.36-6.21-8.87-8.52-7.84ZM432.92,50.44c-2.58-4.33-3.37-8.62-1.77-9.58,1.61-.96,5,1.78,7.58,6.11,2.58,4.33,3.37,8.62,1.77,9.58-1.61.96-5-1.78-7.58-6.11ZM445.41,67.92c-3.37-3.76-4.97-7.82-3.57-9.06,1.39-1.25,5.25.79,8.62,4.55,3.37,3.76,4.97,7.82,3.57,9.06-1.39,1.25-5.25-.79-8.62-4.55ZM472.64,80.62c-.69,1.74-5.05,1.65-9.74-.21-4.69-1.85-7.94-4.76-7.25-6.5s5.05-1.65,9.74.21c4.69,1.85,7.94,4.76,7.25,6.5ZM470.36,67.06c4.69,1.85,7.94,4.76,7.25,6.5-.69,1.74-5.05,1.65-9.74-.21s-7.94-4.76-7.25-6.5c.69-1.74,5.05-1.65,9.74.21ZM455.23,56.27c3.37,3.76,4.97,7.82,3.57,9.06-1.39,1.25-5.25-.79-8.62-4.55-3.37-3.76-4.97-7.82-3.57-9.06,1.39-1.25,5.25.79,8.62,4.55ZM444.84,40.29c2.06,4.61,2.35,8.96.64,9.72-1.71.76-4.76-2.35-6.82-6.96-2.06-4.61-2.35-8.96-.64-9.72,1.71-.76,4.76,2.35,6.82,6.96Z"/>
      <g class="cls-17">
        <path class="cls-18" d="M99.38,204.67l-32.55,6.81c-.76.09-1.08,2.85-.56,7.46.52,4.61,1.44,7.23,2.2,7.15l33.29-.55-2.37-20.87Z"/>
        <path class="cls-9" d="M99.38,204.67l-32.55,6.81c-.76.09-1.08,2.85-.56,7.46.52,4.61,1.44,7.23,2.2,7.15l33.29-.55-2.37-20.87Z"/>
        <path class="cls-18" d="M102.12,225.18c.47-1.72.51-5.68,0-10.25-.51-4.57-1.41-8.43-2.26-10-.05-.1-.11-.2-.16-.28l-1.17.24c-.53,1.59-.59,5.69-.05,10.44s1.48,8.74,2.36,10.17h1.18c.03-.12.06-.22.1-.33Z"/>
        <path class="cls-9" d="M102.12,225.18c.47-1.72.51-5.68,0-10.25-.51-4.57-1.41-8.43-2.26-10-.05-.1-.11-.2-.16-.28l-1.17.24c-.53,1.59-.59,5.69-.05,10.44s1.48,8.74,2.36,10.17h1.18c.03-.12.06-.22.1-.33Z"/>
        <path class="cls-18" d="M102.53,214.89c-.05-.46-1.28-11.2-3.45-10.96-.42.05-.71.49-.9,1.16-.85,2.84-.08,9.95,0,10.29.08.34.85,7.46,2.31,10.04.34.61.73.97,1.15.9,2.1-.23.9-10.97.9-11.43ZM99.35,204.85c.3.46.54.96.71,1.49h0c.88,2.81,1.45,5.7,1.73,8.64.39,2.92.46,5.87.22,8.81-.04.55-.16,1.09-.35,1.61h0c-.04.07-.08.14-.14.2-.08-.04-.16-.11-.21-.19-.63-.83-1.76-4.29-2.41-10.1-.64-5.81-.32-9.43.12-10.38.03-.09.08-.17.15-.24.07.04.14.1.19.16"/>
        <path class="cls-10" d="M102.53,214.89c-.05-.46-1.28-11.2-3.45-10.96-.42.05-.71.49-.9,1.16-.85,2.84-.08,9.95,0,10.29.08.34.85,7.46,2.31,10.04.34.61.73.97,1.15.9,2.1-.23.9-10.97.9-11.43ZM99.35,204.85c.3.46.54.96.71,1.49h0c.88,2.81,1.45,5.7,1.73,8.64.39,2.92.46,5.87.22,8.81-.04.55-.16,1.09-.35,1.61h0c-.04.07-.08.14-.14.2-.08-.04-.16-.11-.21-.19-.63-.83-1.76-4.29-2.41-10.1-.64-5.81-.32-9.43.12-10.38.03-.09.08-.17.15-.24.07.04.14.1.19.16"/>
      </g>
      <g class="cls-17">
        <path class="cls-18" d="M483.28,143.17l-11.33-31.27c-.2-.74-2.97-.66-7.46.5-4.49,1.16-6.96,2.44-6.77,3.18l5.24,32.88,20.33-5.29Z"/>
        <path class="cls-9" d="M483.28,143.17l-11.33-31.27c-.2-.74-2.97-.66-7.46.5-4.49,1.16-6.96,2.44-6.77,3.18l5.24,32.88,20.33-5.29Z"/>
        <path class="cls-18" d="M463.37,148.78c1.77.22,5.69-.3,10.14-1.44,4.45-1.15,8.14-2.59,9.58-3.65.09-.07.18-.14.25-.2l-.41-1.12c-1.65-.3-5.71.22-10.35,1.42-4.63,1.2-8.45,2.7-9.74,3.77l.17,1.17c.12.01.22.03.35.05Z"/>
        <path class="cls-9" d="M463.37,148.78c1.77.22,5.69-.3,10.14-1.44,4.45-1.15,8.14-2.59,9.58-3.65.09-.07.18-.14.25-.2l-.41-1.12c-1.65-.3-5.71.22-10.35,1.42-4.63,1.2-8.45,2.7-9.74,3.77l.17,1.17c.12.01.22.03.35.05Z"/>
        <path class="cls-18" d="M473.61,147.73c.45-.12,10.91-2.84,10.36-4.97-.1-.41-.58-.64-1.27-.73-2.93-.44-9.86,1.32-10.19,1.45-.33.13-7.27,1.89-9.61,3.7-.56.43-.85.86-.73,1.26.52,2.05,10.99-.65,11.44-.72ZM483.11,143.16c-.42.36-.88.67-1.38.91h0c-2.66,1.26-5.44,2.24-8.31,2.93-2.84.79-5.75,1.28-8.69,1.46-.55.04-1.1,0-1.64-.12h0c-.08-.02-.15-.06-.22-.12.03-.09.09-.17.16-.23.73-.74,3.99-2.35,9.66-3.81,5.67-1.46,9.29-1.64,10.29-1.35.09.01.18.06.25.12-.03.08-.08.15-.13.21"/>
        <path class="cls-10" d="M473.61,147.73c.45-.12,10.91-2.84,10.36-4.97-.1-.41-.58-.64-1.27-.73-2.93-.44-9.86,1.32-10.19,1.45-.33.13-7.27,1.89-9.61,3.7-.56.43-.85.86-.73,1.26.52,2.05,10.99-.65,11.44-.72ZM483.11,143.16c-.42.36-.88.67-1.38.91h0c-2.66,1.26-5.44,2.24-8.31,2.93-2.84.79-5.75,1.28-8.69,1.46-.55.04-1.1,0-1.64-.12h0c-.08-.02-.15-.06-.22-.12.03-.09.09-.17.16-.23.73-.74,3.99-2.35,9.66-3.81,5.67-1.46,9.29-1.64,10.29-1.35.09.01.18.06.25.12-.03.08-.08.15-.13.21"/>
      </g>
    </g>
    <g id="Waves">
      <path class="cls-16" d="M47.95,465.5c2.4,1.97,5.14,3.49,8.08,4.47.71.24,1.43.46,2.15.64.73.19,1.46.33,2.21.43,1.49.19,2.99.19,4.47,0,3.02-.42,5.94-1.37,8.63-2.81,1.37-.68,2.7-1.43,4.04-2.08,1.28-.64,2.62-1.15,4-1.52,1.32-.34,2.68-.45,4.03-.33,1.38.2,2.73.6,4,1.19,1.38.63,2.79,1.19,4.23,1.68,1.47.45,3.02.61,4.55.45,1.51-.16,2.99-.51,4.4-1.05.71-.26,1.41-.54,2.1-.82.7-.27,1.39-.58,2.05-.79,1.36-.41,2.78-.55,4.19-.4,1.45.15,2.88.46,4.25.95-1.31-.77-2.71-1.36-4.18-1.74-1.46-.38-2.99-.45-4.47-.19-.76.14-1.46.38-2.17.58-.7.2-1.41.4-2.11.58-1.36.38-2.75.59-4.16.64-.69.01-1.37-.04-2.05-.16-.68-.11-1.35-.28-2.01-.51-1.32-.47-2.65-1.16-4.03-1.82-1.41-.71-2.92-1.19-4.47-1.43-1.54-.16-3.1-.05-4.6.33-3.01.81-5.72,2.45-8.37,3.89-2.52,1.46-5.25,2.52-8.1,3.13-1.38.28-2.79.39-4.19.35-.7-.01-1.41-.07-2.1-.18-.71-.1-1.42-.24-2.12-.4-2.89-.6-5.67-1.65-8.25-3.09Z"/>
      <path class="cls-16" d="M405.42,114.9c-1.53-1.25-3.28-2.21-5.15-2.84-.45-.15-.91-.29-1.37-.41-.46-.12-.93-.21-1.41-.27-.94-.12-1.9-.12-2.84,0-1.93.26-3.79.87-5.5,1.79-.88.43-1.73.91-2.56,1.32-.82.41-1.67.74-2.56.97-.83.22-1.7.29-2.56.2-.89-.12-1.75-.38-2.56-.75-.88-.41-1.78-.76-2.7-1.07-.94-.29-1.93-.38-2.9-.29-.96.09-1.91.3-2.81.64-.45.17-.89.35-1.34.52-.44.18-.89.36-1.31.5-.87.26-1.77.35-2.67.26-.92-.09-1.83-.3-2.71-.61.83.5,1.73.87,2.67,1.11.93.24,1.89.28,2.83.12.49-.09.93-.24,1.39-.36.45-.13.89-.26,1.34-.37.86-.24,1.76-.38,2.65-.42.43,0,.86.03,1.28.1.43.07.86.18,1.28.32.84.3,1.69.74,2.56,1.16.89.45,1.85.76,2.83.91.98.11,1.97.03,2.93-.21,1.92-.51,3.65-1.56,5.34-2.47,1.6-.93,3.34-1.61,5.16-1.99.88-.18,1.78-.25,2.68-.23.45,0,.9.05,1.34.12.45.07.9.16,1.35.26,1.87.39,3.66,1.06,5.32,2Z"/>
      <path class="cls-16" d="M180.96,83.43c-2.4-1.97-5.14-3.49-8.08-4.47-.71-.24-1.43-.45-2.15-.64-.73-.19-1.46-.33-2.21-.43-1.49-.19-2.99-.19-4.47,0-3.02.41-5.94,1.37-8.63,2.81-1.37.68-2.7,1.43-4.04,2.07-1.28.64-2.62,1.15-4,1.52-1.32.34-2.68.45-4.03.33-1.38-.19-2.73-.59-4-1.18-1.38-.63-2.79-1.2-4.23-1.69-1.47-.45-3.02-.6-4.55-.45-1.51.16-2.99.51-4.4,1.05-.71.26-1.41.54-2.1.82s-1.39.58-2.05.78c-1.36.42-2.78.56-4.19.41-1.45-.15-2.88-.47-4.25-.95,1.31.77,2.71,1.36,4.18,1.74,1.45.38,2.96.45,4.44.2.76-.15,1.46-.38,2.17-.58s1.41-.4,2.11-.58c1.36-.38,2.75-.59,4.16-.64.69-.01,1.37.04,2.05.16.68.11,1.35.28,2,.51,1.38.54,2.73,1.15,4.04,1.82,1.41.71,2.92,1.19,4.47,1.43,1.54.16,3.1.05,4.6-.33,3.01-.8,5.72-2.45,8.37-3.89,2.52-1.46,5.25-2.51,8.1-3.12,1.38-.28,2.79-.4,4.19-.36.7.01,1.41.07,2.1.18.71.1,1.42.25,2.12.4,2.9.6,5.69,1.64,8.28,3.09Z"/>
      <g class="cls-17">
        <path class="cls-18" d="M460.91,447.28c-1.61-1.32-3.46-2.34-5.43-3-.48-.16-.96-.31-1.44-.43-.49-.13-.98-.22-1.48-.29-1-.12-2-.12-3,0-2.03.29-4,.94-5.8,1.92-.92.46-1.82.97-2.71,1.39-.86.43-1.77.77-2.7,1.02-.88.23-1.8.31-2.71.22-.93-.13-1.83-.4-2.68-.79-.93-.43-1.88-.8-2.85-1.13-.99-.3-2.03-.41-3.06-.31-1.02.1-2.01.34-2.97.7-.47.18-.95.36-1.41.56s-.93.38-1.37.52c-.91.28-1.87.37-2.82.27-.97-.11-1.93-.32-2.86-.64.88.52,1.83.91,2.81,1.17.98.25,1.99.29,2.99.13.51-.1.98-.26,1.46-.38s.95-.27,1.42-.4c.91-.25,1.85-.4,2.8-.43.46,0,.92.03,1.37.11.46.07.91.19,1.35.34.93.36,1.83.77,2.72,1.22.94.48,1.95.8,2.99.97,1.03.11,2.08.03,3.09-.22,2.03-.54,3.84-1.65,5.63-2.61,1.69-.98,3.53-1.69,5.45-2.1.93-.18,1.87-.26,2.82-.24.47.01.94.05,1.41.12.47.07.95.17,1.43.27,1.95.39,3.83,1.08,5.57,2.05Z"/>
        <path class="cls-9" d="M460.91,447.28c-1.61-1.32-3.46-2.34-5.43-3-.48-.16-.96-.31-1.44-.43-.49-.13-.98-.22-1.48-.29-1-.12-2-.12-3,0-2.03.29-4,.94-5.8,1.92-.92.46-1.82.97-2.71,1.39-.86.43-1.77.77-2.7,1.02-.88.23-1.8.31-2.71.22-.93-.13-1.83-.4-2.68-.79-.93-.43-1.88-.8-2.85-1.13-.99-.3-2.03-.41-3.06-.31-1.02.1-2.01.34-2.97.7-.47.18-.95.36-1.41.56s-.93.38-1.37.52c-.91.28-1.87.37-2.82.27-.97-.11-1.93-.32-2.86-.64.88.52,1.83.91,2.81,1.17.98.25,1.99.29,2.99.13.51-.1.98-.26,1.46-.38s.95-.27,1.42-.4c.91-.25,1.85-.4,2.8-.43.46,0,.92.03,1.37.11.46.07.91.19,1.35.34.93.36,1.83.77,2.72,1.22.94.48,1.95.8,2.99.97,1.03.11,2.08.03,3.09-.22,2.03-.54,3.84-1.65,5.63-2.61,1.69-.98,3.53-1.69,5.45-2.1.93-.18,1.87-.26,2.82-.24.47.01.94.05,1.41.12.47.07.95.17,1.43.27,1.95.39,3.83,1.08,5.57,2.05Z"/>
      </g>
      <g class="cls-17">
        <path class="cls-18" d="M333.1,263.78c.87.71,1.87,1.26,2.94,1.62.26.09.52.17.78.24.26.07.53.12.81.15.54.07,1.08.07,1.62,0,1.1-.15,2.16-.5,3.14-1.02.5-.25.98-.52,1.47-.75.46-.23.95-.42,1.45-.55.48-.13.98-.17,1.47-.12.5.07.99.21,1.45.43.5.24,1.02.45,1.54.64.53.16,1.09.22,1.65.17.55-.06,1.09-.19,1.6-.38l.76-.29c.26-.1.51-.21.75-.29.49-.15,1.01-.2,1.52-.15.53.05,1.05.17,1.55.35-.47-.28-.99-.5-1.52-.64-.53-.14-1.08-.16-1.61-.07-.28.05-.54.14-.79.21s-.51.15-.77.21c-.49.14-1,.22-1.51.24-.25,0-.5-.02-.75-.06-.25-.04-.49-.11-.73-.19-.48-.17-.97-.42-1.47-.64-.51-.25-1.05-.43-1.61-.52-.56-.06-1.13-.02-1.67.12-1.07.35-2.09.83-3.04,1.41-.91.53-1.91.92-2.94,1.14-.5.1-1.02.14-1.53.13-.26,0-.51-.03-.77-.06-.26-.04-.51-.09-.77-.15-1.06-.23-2.08-.62-3.02-1.16Z"/>
        <path class="cls-9" d="M333.1,263.78c.87.71,1.87,1.26,2.94,1.62.26.09.52.17.78.24.26.07.53.12.81.15.54.07,1.08.07,1.62,0,1.1-.15,2.16-.5,3.14-1.02.5-.25.98-.52,1.47-.75.46-.23.95-.42,1.45-.55.48-.13.98-.17,1.47-.12.5.07.99.21,1.45.43.5.24,1.02.45,1.54.64.53.16,1.09.22,1.65.17.55-.06,1.09-.19,1.6-.38l.76-.29c.26-.1.51-.21.75-.29.49-.15,1.01-.2,1.52-.15.53.05,1.05.17,1.55.35-.47-.28-.99-.5-1.52-.64-.53-.14-1.08-.16-1.61-.07-.28.05-.54.14-.79.21s-.51.15-.77.21c-.49.14-1,.22-1.51.24-.25,0-.5-.02-.75-.06-.25-.04-.49-.11-.73-.19-.48-.17-.97-.42-1.47-.64-.51-.25-1.05-.43-1.61-.52-.56-.06-1.13-.02-1.67.12-1.07.35-2.09.83-3.04,1.41-.91.53-1.91.92-2.94,1.14-.5.1-1.02.14-1.53.13-.26,0-.51-.03-.77-.06-.26-.04-.51-.09-.77-.15-1.06-.23-2.08-.62-3.02-1.16Z"/>
      </g>
      <g class="cls-17">
        <path class="cls-18" d="M95.47,348.72c1.67,1.37,3.58,2.42,5.63,3.1.49.17.99.32,1.5.45.5.13,1.02.23,1.53.29,1.03.13,2.08.13,3.11,0,2.1-.29,4.14-.95,6.01-1.96.96-.47,1.92-1,2.81-1.44.89-.45,1.82-.8,2.79-1.06.92-.24,1.87-.31,2.81-.22.96.14,1.9.41,2.77.82.96.44,1.95.83,2.95,1.17,1.03.32,2.12.43,3.2.32,1.05-.11,2.08-.36,3.07-.74.49-.18.98-.37,1.46-.57.49-.2.97-.4,1.43-.54.94-.29,1.94-.39,2.92-.28,1.01.1,2,.31,2.96.64-.91-.54-1.89-.94-2.91-1.21-1.02-.27-2.09-.31-3.13-.13-.52.1-1.02.26-1.51.4s-.98.28-1.47.4c-.94.27-1.92.42-2.9.45-.48,0-.95-.03-1.43-.11-.47-.08-.94-.19-1.39-.35-.93-.33-1.85-.81-2.81-1.28-.97-.49-2.02-.83-3.09-1-1.07-.12-2.15-.04-3.2.23-2.1.56-3.99,1.71-5.83,2.7-1.75,1.02-3.66,1.76-5.64,2.18-.96.19-1.94.27-2.92.24-.49,0-.98-.05-1.46-.12-.49-.07-.98-.17-1.48-.27-2.03-.41-3.98-1.13-5.79-2.13Z"/>
        <path class="cls-9" d="M95.47,348.72c1.67,1.37,3.58,2.42,5.63,3.1.49.17.99.32,1.5.45.5.13,1.02.23,1.53.29,1.03.13,2.08.13,3.11,0,2.1-.29,4.14-.95,6.01-1.96.96-.47,1.92-1,2.81-1.44.89-.45,1.82-.8,2.79-1.06.92-.24,1.87-.31,2.81-.22.96.14,1.9.41,2.77.82.96.44,1.95.83,2.95,1.17,1.03.32,2.12.43,3.2.32,1.05-.11,2.08-.36,3.07-.74.49-.18.98-.37,1.46-.57.49-.2.97-.4,1.43-.54.94-.29,1.94-.39,2.92-.28,1.01.1,2,.31,2.96.64-.91-.54-1.89-.94-2.91-1.21-1.02-.27-2.09-.31-3.13-.13-.52.1-1.02.26-1.51.4s-.98.28-1.47.4c-.94.27-1.92.42-2.9.45-.48,0-.95-.03-1.43-.11-.47-.08-.94-.19-1.39-.35-.93-.33-1.85-.81-2.81-1.28-.97-.49-2.02-.83-3.09-1-1.07-.12-2.15-.04-3.2.23-2.1.56-3.99,1.71-5.83,2.7-1.75,1.02-3.66,1.76-5.64,2.18-.96.19-1.94.27-2.92.24-.49,0-.98-.05-1.46-.12-.49-.07-.98-.17-1.48-.27-2.03-.41-3.98-1.13-5.79-2.13Z"/>
      </g>
      <path class="cls-16" d="M425.12,167.82c-1.1-.9-2.36-1.59-3.71-2.05-.33-.12-.64-.21-.99-.29-.32-.1-.65-.17-.98-.22-.68-.09-1.37-.09-2.05,0-1.39.19-2.73.62-3.96,1.28-.64.31-1.24.64-1.85.95-.59.3-1.21.53-1.84.7-.6.16-1.23.21-1.85.15-.64-.08-1.27-.25-1.87-.52-.64-.26-1.28-.56-1.92-.77-.68-.21-1.39-.28-2.09-.21-.69.07-1.37.24-2.02.49l-.97.38c-.32.13-.64.26-.94.36-.62.19-1.27.25-1.92.19-.67-.07-1.32-.21-1.96-.43.6.36,1.24.62,1.92.8.67.17,1.37.2,2.05.09.35-.06.67-.17.99-.26l.97-.27c.62-.18,1.27-.28,1.92-.3.31,0,.63.02.94.08.31.05.62.13.92.23.63.25,1.25.52,1.85.84.64.32,1.33.53,2.04.64.71.08,1.42.03,2.11-.15,1.34-.44,2.63-1.04,3.84-1.78,1.16-.67,2.41-1.15,3.72-1.43.63-.13,1.27-.18,1.92-.17.32,0,.65.04.97.08.33.05.64.12.97.19,1.33.28,2.61.77,3.8,1.44Z"/>
      <g class="cls-17">
        <path class="cls-18" d="M351.69,441.18c-2.4-1.97-5.14-3.49-8.08-4.47-.71-.24-1.43-.45-2.15-.64-.72-.19-1.46-.34-2.21-.43-1.49-.19-2.99-.19-4.47,0-3.02.42-5.94,1.37-8.63,2.81-1.37.68-2.7,1.43-4.03,2.07-1.28.64-2.62,1.15-4.01,1.53-1.32.34-2.68.45-4.03.32-1.38-.19-2.73-.59-3.99-1.18-1.38-.63-2.8-1.2-4.24-1.68-1.47-.45-3.02-.61-4.55-.45-1.51.16-2.99.51-4.4,1.05-.71.26-1.41.54-2.1.82s-1.38.58-2.05.79c-1.36.41-2.78.55-4.19.4-1.45-.15-2.87-.47-4.24-.95,1.3.77,2.71,1.36,4.17,1.74,1.46.38,2.99.45,4.47.19.76-.14,1.46-.38,2.17-.58s1.41-.4,2.11-.58c1.36-.38,2.75-.59,4.16-.64.69-.01,1.37.04,2.05.16.68.11,1.36.28,2.01.51,1.32.47,2.65,1.16,4.04,1.82,1.41.71,2.92,1.19,4.47,1.43,1.54.16,3.1.05,4.6-.33,3.01-.81,5.72-2.45,8.37-3.89,2.52-1.46,5.25-2.52,8.1-3.13,1.38-.28,2.79-.4,4.19-.36.7.01,1.41.08,2.1.19.7.1,1.41.24,2.12.39,2.89.61,5.67,1.65,8.24,3.1Z"/>
        <path class="cls-9" d="M351.69,441.18c-2.4-1.97-5.14-3.49-8.08-4.47-.71-.24-1.43-.45-2.15-.64-.72-.19-1.46-.34-2.21-.43-1.49-.19-2.99-.19-4.47,0-3.02.42-5.94,1.37-8.63,2.81-1.37.68-2.7,1.43-4.03,2.07-1.28.64-2.62,1.15-4.01,1.53-1.32.34-2.68.45-4.03.32-1.38-.19-2.73-.59-3.99-1.18-1.38-.63-2.8-1.2-4.24-1.68-1.47-.45-3.02-.61-4.55-.45-1.51.16-2.99.51-4.4,1.05-.71.26-1.41.54-2.1.82s-1.38.58-2.05.79c-1.36.41-2.78.55-4.19.4-1.45-.15-2.87-.47-4.24-.95,1.3.77,2.71,1.36,4.17,1.74,1.46.38,2.99.45,4.47.19.76-.14,1.46-.38,2.17-.58s1.41-.4,2.11-.58c1.36-.38,2.75-.59,4.16-.64.69-.01,1.37.04,2.05.16.68.11,1.36.28,2.01.51,1.32.47,2.65,1.16,4.04,1.82,1.41.71,2.92,1.19,4.47,1.43,1.54.16,3.1.05,4.6-.33,3.01-.81,5.72-2.45,8.37-3.89,2.52-1.46,5.25-2.52,8.1-3.13,1.38-.28,2.79-.4,4.19-.36.7.01,1.41.08,2.1.19.7.1,1.41.24,2.12.39,2.89.61,5.67,1.65,8.24,3.1Z"/>
      </g>
      <g class="cls-17">
        <path class="cls-18" d="M435.13,379.56c-2.4-1.97-5.14-3.49-8.09-4.47-.71-.24-1.42-.46-2.14-.64-2.18-.57-4.44-.71-6.67-.42-3.02.42-5.94,1.37-8.63,2.81-1.37.68-2.7,1.43-4.03,2.08-1.28.64-2.62,1.15-4.01,1.52-1.32.34-2.68.45-4.03.33-1.38-.2-2.73-.6-3.99-1.19-1.38-.63-2.79-1.19-4.23-1.68-1.47-.45-3.02-.61-4.55-.45-1.51.16-2.99.51-4.4,1.05-.71.26-1.41.54-2.1.82-.69.28-1.39.58-2.05.78-1.35.41-2.78.55-4.19.4-1.45-.14-2.88-.46-4.25-.95,1.3.77,2.71,1.36,4.17,1.74,1.46.38,2.99.45,4.47.19.76-.14,1.46-.38,2.17-.58s1.41-.4,2.11-.58c1.36-.38,2.75-.59,4.16-.64.69-.01,1.37.04,2.05.16.68.11,1.35.28,2.01.51,1.33.47,2.65,1.16,4.04,1.82,1.4.71,2.9,1.19,4.44,1.43,1.54.16,3.1.05,4.6-.33,3.01-.81,5.75-2.45,8.37-3.89,2.52-1.46,5.25-2.52,8.1-3.13,1.38-.28,2.79-.39,4.19-.35.7.01,1.41.07,2.1.18.7.1,1.41.24,2.12.4,2.9.6,5.68,1.64,8.27,3.09Z"/>
        <path class="cls-9" d="M435.13,379.56c-2.4-1.97-5.14-3.49-8.09-4.47-.71-.24-1.42-.46-2.14-.64-2.18-.57-4.44-.71-6.67-.42-3.02.42-5.94,1.37-8.63,2.81-1.37.68-2.7,1.43-4.03,2.08-1.28.64-2.62,1.15-4.01,1.52-1.32.34-2.68.45-4.03.33-1.38-.2-2.73-.6-3.99-1.19-1.38-.63-2.79-1.19-4.23-1.68-1.47-.45-3.02-.61-4.55-.45-1.51.16-2.99.51-4.4,1.05-.71.26-1.41.54-2.1.82-.69.28-1.39.58-2.05.78-1.35.41-2.78.55-4.19.4-1.45-.14-2.88-.46-4.25-.95,1.3.77,2.71,1.36,4.17,1.74,1.46.38,2.99.45,4.47.19.76-.14,1.46-.38,2.17-.58s1.41-.4,2.11-.58c1.36-.38,2.75-.59,4.16-.64.69-.01,1.37.04,2.05.16.68.11,1.35.28,2.01.51,1.33.47,2.65,1.16,4.04,1.82,1.4.71,2.9,1.19,4.44,1.43,1.54.16,3.1.05,4.6-.33,3.01-.81,5.75-2.45,8.37-3.89,2.52-1.46,5.25-2.52,8.1-3.13,1.38-.28,2.79-.39,4.19-.35.7.01,1.41.07,2.1.18.7.1,1.41.24,2.12.4,2.9.6,5.68,1.64,8.27,3.09Z"/>
      </g>
    </g>
  </g>
</svg>